<svg id="svg" version="1.1" xmlns="http://www.w3.org/2000/svg" xmlns:xlink="http://www.w3.org/1999/xlink" width="400" height="400" viewBox="0, 0, 400,400"><g id="svgg"><path id="path0" d="M255.926 120.690 C 250.364 121.590,242.216 128.009,238.237 134.625 C 237.501 135.850,236.330 137.602,235.636 138.519 C 234.030 140.640,231.164 146.525,229.414 151.296 L 228.055 155.000 227.899 162.407 C 227.705 171.622,227.804 171.203,225.458 172.713 C 220.641 175.813,206.238 190.248,199.792 198.435 C 198.786 199.713,196.923 202.046,195.651 203.620 C 194.380 205.194,193.189 206.815,193.006 207.222 C 192.822 207.630,191.628 209.546,190.352 211.481 C 185.391 219.005,179.656 229.085,178.164 232.905 C 177.739 233.994,177.145 235.131,176.844 235.432 C 176.543 235.733,176.293 236.259,176.290 236.601 C 176.284 237.235,174.232 242.465,173.390 243.993 C 172.436 245.725,168.156 257.549,167.798 259.444 C 167.644 260.259,167.334 261.343,167.109 261.852 C 166.595 263.016,165.401 268.051,164.605 272.407 C 164.270 274.241,163.763 276.191,163.479 276.741 C 163.195 277.291,162.963 278.440,162.963 279.295 C 162.963 280.150,162.647 281.784,162.260 282.925 C 161.874 284.066,161.353 286.667,161.102 288.704 C 160.852 290.741,160.502 293.324,160.326 294.444 C 157.646 311.494,158.067 344.615,161.057 351.969 C 161.291 352.542,161.481 353.465,161.481 354.020 C 161.481 354.575,161.815 355.682,162.222 356.481 C 162.630 357.281,162.968 358.357,162.975 358.875 C 162.981 359.392,163.231 360.138,163.530 360.534 C 163.829 360.929,164.074 361.632,164.074 362.095 C 164.074 363.048,164.491 364.055,167.276 369.815 C 174.936 385.661,188.126 395.516,203.704 397.032 C 205.639 397.220,208.264 397.580,209.537 397.832 C 211.364 398.193,212.340 398.194,214.167 397.838 C 216.670 397.350,219.158 396.953,225.129 396.091 C 227.237 395.786,229.437 395.291,230.018 394.991 C 230.599 394.690,231.541 394.439,232.111 394.431 C 232.682 394.424,233.565 394.180,234.074 393.889 C 234.583 393.598,235.438 393.354,235.973 393.346 C 236.508 393.339,237.154 393.083,237.407 392.778 C 237.661 392.472,238.100 392.222,238.384 392.222 C 238.667 392.222,239.188 392.076,239.542 391.896 C 239.896 391.717,241.935 390.731,244.074 389.704 C 246.213 388.677,248.595 387.407,249.368 386.882 C 250.141 386.356,250.931 385.926,251.124 385.926 C 251.317 385.926,252.219 385.384,253.127 384.722 C 257.090 381.835,258.737 380.661,259.216 380.380 C 259.623 380.142,259.494 379.784,258.597 378.651 C 256.516 376.023,254.831 371.808,254.819 369.202 C 254.816 368.398,254.442 368.009,252.771 367.066 C 235.804 357.490,246.188 330.868,264.696 336.494 C 265.374 336.700,265.633 336.485,266.311 335.156 C 270.540 326.867,282.388 323.340,290.596 327.928 C 292.658 329.080,292.593 329.073,292.593 328.147 C 292.593 327.739,292.926 326.783,293.333 326.023 C 293.741 325.263,294.080 324.305,294.087 323.894 C 294.094 323.484,294.339 322.731,294.630 322.222 C 294.921 321.713,295.165 320.940,295.172 320.505 C 295.179 320.070,295.434 319.237,295.738 318.653 C 296.043 318.070,296.293 317.126,296.294 316.556 C 296.295 315.985,296.524 315.069,296.802 314.519 C 297.081 313.969,297.419 312.852,297.555 312.037 C 297.690 311.222,298.026 309.972,298.302 309.259 C 298.914 307.674,299.625 303.927,299.642 302.200 C 299.648 301.499,299.987 300.009,300.394 298.889 C 300.801 297.769,301.394 294.935,301.712 292.593 C 302.030 290.250,302.426 287.333,302.593 286.111 C 303.688 278.088,303.616 278.769,305.008 263.148 C 305.334 259.481,305.783 254.445,306.005 251.956 C 306.434 247.148,306.145 240.900,305.042 231.111 C 304.732 228.361,304.471 224.952,304.461 223.536 C 304.452 222.119,304.270 219.119,304.056 216.869 C 303.711 213.238,303.445 211.628,302.220 205.741 C 302.050 204.926,301.797 202.759,301.658 200.926 C 301.519 199.093,301.083 196.426,300.691 195.000 C 300.298 193.574,299.808 191.241,299.601 189.815 C 299.395 188.389,299.098 186.361,298.942 185.308 C 298.786 184.255,298.482 183.172,298.265 182.900 C 298.048 182.629,297.751 181.576,297.603 180.560 C 297.456 179.545,297.102 178.261,296.816 177.708 C 296.530 177.156,296.296 176.060,296.296 175.274 C 296.296 174.488,296.052 173.522,295.753 173.126 C 295.453 172.731,295.203 172.025,295.197 171.558 C 295.190 171.091,294.352 168.191,293.333 165.113 C 292.315 162.034,291.481 159.297,291.481 159.030 C 291.481 158.503,291.002 157.320,288.424 151.481 C 287.929 150.361,286.979 148.111,286.311 146.481 C 285.644 144.852,284.921 143.185,284.705 142.778 C 283.741 140.961,281.373 136.885,281.067 136.517 C 280.882 136.294,279.727 134.578,278.500 132.703 C 276.248 129.265,271.668 124.581,269.444 123.442 C 268.833 123.130,268.071 122.645,267.751 122.365 C 266.200 121.010,259.670 120.085,255.926 120.690 M249.657 201.223 C 255.819 204.834,259.259 214.975,259.259 229.524 C 259.259 234.853,259.140 236.595,258.122 246.111 C 256.134 264.701,248.420 291.691,239.811 310.185 C 236.906 316.425,231.808 326.439,231.137 327.222 C 230.788 327.630,229.822 329.130,228.991 330.556 C 224.666 337.975,214.738 348.991,210.556 351.009 C 209.944 351.304,208.861 351.864,208.148 352.254 C 203.977 354.532,196.408 352.166,194.249 347.908 C 193.851 347.124,193.339 346.231,193.111 345.926 C 192.510 345.118,191.799 343.024,191.477 341.111 C 191.323 340.194,191.020 338.944,190.803 338.333 C 189.143 333.641,188.623 322.528,189.659 313.889 C 189.854 312.259,190.170 309.093,190.360 306.852 C 190.815 301.502,191.428 297.551,192.072 295.826 C 192.358 295.058,192.593 293.703,192.593 292.816 C 192.593 291.928,192.843 290.603,193.148 289.872 C 193.454 289.141,193.704 287.972,193.704 287.275 C 193.704 286.577,194.033 285.280,194.436 284.392 C 194.839 283.504,195.173 282.250,195.177 281.604 C 195.182 280.959,195.424 279.959,195.716 279.382 C 196.008 278.805,196.436 277.333,196.668 276.111 C 196.900 274.889,197.429 273.056,197.843 272.037 C 198.257 271.019,198.726 269.547,198.884 268.767 C 199.041 267.986,199.357 267.161,199.585 266.933 C 199.813 266.705,200.000 266.067,200.000 265.514 C 200.000 264.962,200.583 263.147,201.296 261.481 C 202.009 259.816,202.593 258.265,202.593 258.035 C 202.593 257.498,205.638 249.886,207.265 246.356 C 207.955 244.861,208.519 243.563,208.519 243.473 C 208.519 242.658,216.994 226.509,218.941 223.615 C 219.727 222.446,220.370 221.405,220.370 221.300 C 220.370 220.331,226.199 213.099,230.496 208.737 C 238.673 200.435,244.447 198.170,249.657 201.223 " stroke="none" fill="#fc8506" fill-rule="evenodd"></path><path id="path1" d="M95.723 8.547 C 95.588 8.766,95.579 9.807,95.703 10.861 C 95.827 11.915,96.096 16.611,96.301 21.296 C 96.717 30.811,97.897 42.277,98.722 44.815 C 99.019 45.731,99.262 47.080,99.261 47.812 C 99.260 48.544,99.593 50.112,100.000 51.296 C 100.407 52.480,100.741 53.918,100.741 54.490 C 100.741 55.062,100.972 56.078,101.256 56.747 C 101.539 57.416,102.067 59.296,102.430 60.926 C 102.792 62.556,103.234 64.182,103.411 64.540 C 103.962 65.655,106.350 72.359,106.543 73.333 C 106.644 73.843,106.958 74.759,107.242 75.370 C 107.525 75.981,108.776 78.731,110.022 81.481 C 113.121 88.320,115.440 92.400,120.338 99.630 C 125.019 106.539,126.892 108.787,133.143 115.000 C 138.729 120.552,142.081 123.365,148.889 128.213 C 149.806 128.866,151.389 130.016,152.407 130.769 C 153.426 131.522,155.259 132.693,156.481 133.372 C 157.704 134.051,159.232 134.962,159.878 135.396 C 162.105 136.894,176.931 144.039,181.296 145.719 C 182.722 146.267,184.472 146.941,185.185 147.217 C 185.898 147.492,187.481 148.087,188.704 148.538 C 189.926 148.989,191.259 149.491,191.667 149.653 C 192.074 149.815,193.657 150.308,195.185 150.747 C 196.713 151.187,198.630 151.769,199.444 152.041 C 200.259 152.313,202.176 152.808,203.704 153.142 C 205.231 153.476,207.254 153.989,208.198 154.282 C 210.089 154.869,211.710 154.973,211.987 154.525 C 212.213 154.159,211.609 140.415,211.128 135.000 C 210.265 125.276,208.130 112.314,206.522 107.037 C 206.242 106.120,205.726 104.037,205.374 102.407 C 205.021 100.778,204.502 98.897,204.218 98.228 C 203.935 97.559,203.704 96.773,203.704 96.481 C 203.704 95.968,203.525 95.504,201.882 91.763 C 201.458 90.798,201.111 89.705,201.111 89.334 C 201.111 88.963,200.866 88.337,200.567 87.941 C 200.268 87.546,200.018 86.996,200.012 86.720 C 199.996 86.066,193.496 72.936,192.356 71.256 C 191.875 70.547,191.481 69.850,191.480 69.706 C 191.479 69.324,185.374 60.536,182.754 57.144 C 173.974 45.774,158.732 33.519,143.333 25.448 C 140.991 24.220,138.452 22.825,137.693 22.348 C 136.933 21.872,136.164 21.481,135.985 21.481 C 135.805 21.481,134.546 20.977,133.187 20.361 C 130.837 19.295,124.984 16.856,120.208 14.951 C 118.998 14.469,117.656 14.074,117.226 14.074 C 116.796 14.074,116.258 13.887,116.030 13.659 C 115.802 13.431,114.977 13.114,114.196 12.955 C 112.790 12.668,112.287 12.515,108.704 11.284 C 107.685 10.935,106.185 10.533,105.370 10.392 C 104.556 10.252,103.525 9.939,103.080 9.698 C 102.635 9.457,101.755 9.259,101.124 9.259 C 100.493 9.259,99.378 9.009,98.647 8.704 C 97.079 8.049,96.065 7.994,95.723 8.547 " stroke="none" fill="#5ccc15" fill-rule="evenodd"></path><path id="path2" d="M0.000 200.000 L 0.000 400.000 200.000 400.000 L 400.000 400.000 400.000 200.000 L 400.000 0.000 200.000 0.000 L 0.000 0.000 0.000 200.000 M99.207 8.156 C 100.095 8.559,101.345 8.890,101.985 8.891 C 102.625 8.892,103.626 9.142,104.209 9.447 C 104.792 9.751,105.802 10.000,106.453 10.000 C 107.104 10.000,107.960 10.245,108.355 10.544 C 108.751 10.843,109.657 11.099,110.370 11.112 C 111.083 11.126,112.083 11.376,112.593 11.667 C 113.102 11.958,113.854 12.202,114.265 12.209 C 114.675 12.216,115.633 12.556,116.393 12.963 C 117.153 13.370,118.159 13.704,118.628 13.704 C 119.098 13.704,119.640 13.837,119.833 14.000 C 120.027 14.163,121.185 14.680,122.407 15.150 C 123.630 15.619,125.130 16.217,125.741 16.479 C 126.352 16.741,127.243 17.073,127.720 17.217 C 128.198 17.361,130.325 18.297,132.448 19.295 C 134.571 20.294,136.583 21.111,136.921 21.111 C 137.258 21.111,137.797 21.340,138.119 21.619 C 138.696 22.120,140.278 23.021,145.370 25.747 C 149.958 28.203,151.204 28.963,156.481 32.532 C 161.210 35.729,164.334 37.976,164.815 38.526 C 164.917 38.643,166.012 39.509,167.250 40.452 C 170.054 42.588,181.475 54.029,182.848 56.077 C 183.406 56.910,184.577 58.377,185.450 59.336 C 186.323 60.295,187.037 61.255,187.037 61.469 C 187.037 61.684,187.995 63.149,189.166 64.726 C 191.603 68.006,192.562 69.705,196.682 78.040 C 198.315 81.342,199.794 84.132,199.969 84.240 C 200.145 84.349,200.396 84.897,200.527 85.459 C 200.659 86.022,200.988 86.981,201.260 87.593 C 201.732 88.656,202.090 89.661,203.768 94.630 C 204.180 95.852,204.732 97.435,204.994 98.148 C 205.742 100.188,208.430 111.241,209.273 115.741 C 209.672 117.869,210.622 124.167,211.118 127.963 C 212.020 134.870,213.184 153.144,212.815 154.613 C 212.531 155.746,210.550 155.910,207.778 155.031 C 206.861 154.740,205.194 154.309,204.074 154.073 C 202.188 153.676,200.556 153.205,194.029 151.171 C 180.138 146.843,160.778 137.616,151.177 130.749 C 149.889 129.828,148.056 128.544,147.103 127.895 C 146.150 127.247,144.724 126.164,143.935 125.488 C 143.145 124.812,142.228 124.162,141.898 124.043 C 141.077 123.748,132.893 115.910,128.202 110.926 C 122.188 104.536,115.485 94.366,110.504 84.074 C 109.173 81.324,107.932 78.785,107.746 78.431 C 107.560 78.077,107.407 77.556,107.407 77.273 C 107.407 76.989,107.157 76.550,106.852 76.296 C 106.546 76.043,106.295 75.397,106.294 74.862 C 106.293 74.327,106.039 73.405,105.731 72.814 C 105.102 71.608,103.004 65.426,102.074 62.037 C 101.738 60.815,101.148 58.731,100.761 57.407 C 99.767 54.003,99.240 51.723,98.691 48.443 C 98.428 46.874,98.088 45.388,97.935 45.140 C 97.030 43.675,94.626 9.770,95.303 8.006 C 95.614 7.194,97.223 7.256,99.207 8.156 M265.241 120.648 C 265.496 120.903,265.999 121.111,266.359 121.111 C 267.510 121.111,272.368 124.710,275.024 127.530 C 278.179 130.879,279.774 133.135,282.970 138.764 C 283.798 140.223,284.708 141.610,284.992 141.845 C 285.276 142.081,285.621 142.786,285.758 143.413 C 285.896 144.040,286.490 145.570,287.078 146.813 C 287.666 148.057,288.148 149.345,288.148 149.677 C 288.148 150.008,288.398 150.487,288.704 150.741 C 289.009 150.994,289.259 151.455,289.259 151.764 C 289.259 152.073,289.616 153.095,290.053 154.034 C 291.361 156.848,291.725 157.818,292.711 161.111 C 293.230 162.843,294.015 165.343,294.456 166.667 C 294.897 167.991,295.343 169.741,295.447 170.556 C 295.551 171.370,295.867 172.299,296.149 172.620 C 296.432 172.940,296.770 174.023,296.902 175.027 C 297.034 176.031,297.368 177.302,297.645 177.852 C 297.922 178.402,298.148 179.452,298.148 180.185 C 298.148 180.918,298.376 181.968,298.654 182.518 C 298.932 183.068,299.359 184.935,299.603 186.667 C 299.847 188.398,300.387 191.231,300.804 192.963 C 301.593 196.242,301.957 198.415,302.605 203.695 C 302.817 205.422,303.304 208.088,303.687 209.621 C 304.091 211.234,304.490 214.591,304.635 217.593 C 304.982 224.778,305.848 235.370,306.271 237.593 C 306.849 240.638,306.752 253.854,306.132 256.458 C 305.837 257.693,305.327 263.120,304.997 268.519 C 304.668 273.917,304.332 278.583,304.250 278.889 C 304.169 279.194,303.929 280.778,303.717 282.407 C 303.505 284.037,303.094 287.037,302.804 289.074 C 302.513 291.111,302.166 293.611,302.033 294.630 C 301.899 295.648,301.480 297.238,301.103 298.163 C 300.725 299.088,300.314 300.755,300.189 301.867 C 299.789 305.415,299.145 308.673,298.639 309.704 C 298.369 310.254,298.142 311.337,298.135 312.111 C 298.128 312.885,297.884 313.935,297.593 314.444 C 297.301 314.954,297.057 315.793,297.050 316.311 C 297.043 316.828,296.704 317.905,296.296 318.704 C 295.889 319.503,295.550 320.580,295.544 321.097 C 295.537 321.614,295.287 322.361,294.988 322.756 C 294.689 323.151,294.444 323.911,294.444 324.444 C 294.444 324.978,294.200 325.737,293.901 326.133 C 293.602 326.528,293.352 327.300,293.345 327.849 C 293.328 329.310,292.911 329.360,290.698 328.168 C 281.862 323.411,270.767 326.792,266.267 335.612 C 265.597 336.926,265.485 336.992,264.535 336.628 C 262.756 335.948,257.466 336.157,255.055 337.003 C 241.683 341.696,240.228 360.331,252.723 366.873 L 254.726 367.922 255.289 370.778 C 255.911 373.936,257.124 376.629,258.970 378.951 C 259.638 379.791,260.013 380.540,259.803 380.614 C 259.592 380.688,257.767 381.997,255.748 383.523 C 253.728 385.048,251.866 386.296,251.610 386.296 C 251.354 386.296,250.512 386.729,249.739 387.258 C 247.759 388.613,241.595 391.677,239.715 392.240 C 238.849 392.500,237.954 392.936,237.728 393.208 C 237.502 393.481,236.874 393.704,236.333 393.704 C 235.793 393.704,235.013 393.940,234.601 394.229 C 234.188 394.517,233.193 394.873,232.388 395.018 C 231.584 395.164,230.640 395.430,230.290 395.611 C 229.455 396.042,224.274 396.904,220.590 397.226 C 218.979 397.367,216.999 397.715,216.191 398.000 C 214.252 398.684,209.393 398.664,207.407 397.963 C 206.541 397.657,204.812 397.405,203.565 397.402 C 189.887 397.369,172.633 384.448,166.479 369.630 C 166.098 368.713,165.568 367.700,165.301 367.378 C 165.034 367.057,164.810 366.473,164.803 366.082 C 164.797 365.691,164.547 365.047,164.247 364.651 C 163.948 364.256,163.704 363.500,163.704 362.970 C 163.704 362.441,163.370 361.355,162.963 360.556 C 162.556 359.756,162.217 358.763,162.210 358.348 C 162.204 357.932,161.954 357.269,161.655 356.874 C 161.356 356.478,161.111 355.629,161.111 354.987 C 161.111 354.345,160.793 352.895,160.404 351.765 C 160.015 350.635,159.585 348.567,159.447 347.170 C 159.309 345.773,159.050 344.060,158.870 343.363 C 157.682 338.755,157.695 309.758,158.888 301.296 C 159.089 299.870,159.417 297.287,159.617 295.556 C 160.188 290.599,161.382 283.053,161.668 282.591 C 161.811 282.359,162.074 281.005,162.253 279.580 C 162.432 278.156,162.826 276.543,163.129 275.995 C 163.432 275.448,163.845 274.000,164.046 272.778 C 164.755 268.471,165.194 266.322,165.558 265.364 C 165.760 264.832,165.926 263.944,165.926 263.392 C 165.926 262.839,166.151 262.058,166.427 261.656 C 166.702 261.255,167.041 260.196,167.179 259.305 C 167.318 258.413,167.676 257.335,167.975 256.908 C 168.274 256.481,168.519 255.745,168.519 255.273 C 168.519 254.800,169.001 253.379,169.591 252.114 C 170.180 250.850,170.930 248.908,171.258 247.800 C 171.585 246.693,172.178 245.109,172.575 244.282 C 173.963 241.385,175.926 236.596,175.926 236.105 C 175.926 235.832,176.141 235.388,176.403 235.119 C 176.665 234.850,177.193 233.796,177.575 232.778 C 177.957 231.759,178.717 230.093,179.263 229.074 C 182.304 223.408,183.089 221.999,184.670 219.370 C 186.566 216.217,189.818 211.101,191.516 208.600 C 192.108 207.729,192.593 206.945,192.593 206.858 C 192.593 206.505,199.311 197.961,203.083 193.519 C 208.294 187.380,222.382 173.867,225.596 171.924 L 226.932 171.116 227.131 163.428 C 227.378 153.889,227.793 152.286,232.481 142.780 C 233.385 140.947,234.757 138.614,235.530 137.595 C 236.304 136.575,237.370 134.991,237.900 134.074 C 241.065 128.595,248.836 122.128,254.404 120.338 C 255.924 119.850,264.694 120.101,265.241 120.648 M241.296 201.390 C 240.685 201.710,239.935 202.103,239.630 202.264 C 239.324 202.425,238.347 202.921,237.459 203.368 C 234.174 205.019,224.565 215.555,220.926 221.496 C 220.315 222.494,219.085 224.505,218.194 225.966 C 216.100 229.395,211.014 239.415,208.719 244.630 C 207.733 246.870,206.553 249.537,206.097 250.556 C 204.571 253.958,202.963 258.197,202.959 258.824 C 202.957 259.165,202.518 260.361,201.984 261.481 C 201.449 262.602,200.874 264.331,200.706 265.325 C 200.538 266.318,200.143 267.415,199.830 267.761 C 199.516 268.108,199.259 268.843,199.259 269.394 C 199.259 269.945,199.013 270.773,198.711 271.233 C 198.409 271.693,197.827 273.699,197.418 275.690 C 197.008 277.681,196.422 279.669,196.114 280.108 C 195.807 280.547,195.556 281.587,195.556 282.419 C 195.556 283.251,195.311 284.256,195.012 284.651 C 194.713 285.047,194.463 285.992,194.456 286.752 C 194.450 287.512,194.208 288.762,193.919 289.530 C 193.631 290.298,193.291 291.843,193.165 292.963 C 193.039 294.083,192.698 295.750,192.407 296.667 C 191.919 298.200,191.672 300.079,190.722 309.444 C 189.348 323.001,189.536 332.326,191.301 338.148 C 191.579 339.065,192.016 340.798,192.272 341.999 C 192.528 343.201,193.121 344.750,193.591 345.442 C 194.060 346.134,194.444 346.924,194.444 347.199 C 194.444 348.003,198.734 351.743,200.218 352.233 C 202.459 352.973,207.089 352.534,208.779 351.421 C 209.552 350.912,210.935 350.023,211.852 349.444 C 216.122 346.750,229.630 330.711,229.630 328.336 C 229.630 328.157,229.948 327.667,230.337 327.246 C 231.468 326.022,237.694 313.613,240.941 306.111 C 241.205 305.500,241.910 303.917,242.507 302.593 C 243.103 301.269,244.217 298.352,244.982 296.111 C 245.747 293.870,246.508 291.704,246.673 291.296 C 247.316 289.713,251.187 277.499,251.717 275.383 C 252.316 272.990,253.176 269.516,253.690 267.407 C 259.673 242.878,260.112 219.272,254.794 207.963 C 252.030 202.083,245.783 199.042,241.296 201.390 " stroke="none" fill="#fbfbfb" fill-rule="evenodd"></path><path id="path3" d="M95.418 7.700 C 95.319 7.862,95.809 7.927,96.507 7.845 C 97.206 7.763,97.778 7.632,97.778 7.552 C 97.778 7.273,95.597 7.410,95.418 7.700 M95.300 15.000 C 95.302 16.222,95.371 16.678,95.454 16.012 C 95.536 15.346,95.534 14.346,95.450 13.790 C 95.365 13.233,95.298 13.778,95.300 15.000 M95.680 20.741 C 95.680 22.269,95.745 22.894,95.825 22.130 C 95.905 21.366,95.905 20.116,95.825 19.352 C 95.745 18.588,95.680 19.213,95.680 20.741 M96.397 32.963 C 96.397 33.880,96.469 34.255,96.558 33.796 C 96.646 33.338,96.646 32.588,96.558 32.130 C 96.469 31.671,96.397 32.046,96.397 32.963 M97.508 42.593 C 97.508 43.509,97.581 43.884,97.669 43.426 C 97.757 42.968,97.757 42.218,97.669 41.759 C 97.581 41.301,97.508 41.676,97.508 42.593 M169.815 42.963 C 170.818 43.981,171.722 44.815,171.824 44.815 C 171.926 44.815,171.188 43.981,170.185 42.963 C 169.182 41.944,168.278 41.111,168.176 41.111 C 168.074 41.111,168.812 41.944,169.815 42.963 M180.000 53.148 C 181.106 54.269,182.095 55.185,182.197 55.185 C 182.299 55.185,181.477 54.269,180.370 53.148 C 179.264 52.028,178.275 51.111,178.173 51.111 C 178.072 51.111,178.894 52.028,180.000 53.148 M100.086 54.815 C 100.086 55.528,100.162 55.819,100.255 55.463 C 100.348 55.106,100.348 54.523,100.255 54.167 C 100.162 53.810,100.086 54.102,100.086 54.815 M100.383 56.346 C 100.376 56.476,100.614 57.142,100.911 57.828 C 101.209 58.513,101.453 58.824,101.454 58.519 C 101.455 57.985,100.410 55.864,100.383 56.346 M185.044 59.244 C 185.680 59.965,186.383 60.889,186.607 61.296 C 186.831 61.704,187.020 61.819,187.026 61.553 C 187.032 61.286,186.329 60.362,185.463 59.500 C 184.401 58.442,184.265 58.359,185.044 59.244 M104.844 70.763 C 104.828 71.080,105.074 71.663,105.391 72.059 C 105.958 72.766,105.961 72.766,105.626 72.037 C 105.439 71.630,105.193 71.046,105.079 70.741 C 104.901 70.261,104.869 70.264,104.844 70.763 M194.074 73.333 C 194.490 74.148,194.913 74.815,195.015 74.815 C 195.117 74.815,194.860 74.148,194.444 73.333 C 194.029 72.519,193.605 71.852,193.503 71.852 C 193.402 71.852,193.658 72.519,194.074 73.333 M200.413 86.158 C 200.390 86.592,200.662 87.175,201.019 87.455 C 201.582 87.897,201.612 87.891,201.244 87.407 C 201.011 87.102,200.739 86.519,200.638 86.111 C 200.465 85.408,200.454 85.410,200.413 86.158 M112.407 88.148 C 112.723 88.759,113.065 89.259,113.167 89.259 C 113.269 89.259,113.094 88.759,112.778 88.148 C 112.462 87.537,112.120 87.037,112.018 87.037 C 111.916 87.037,112.091 87.537,112.407 88.148 M122.962 104.722 C 123.446 105.384,123.901 105.926,123.972 105.926 C 124.253 105.926,123.335 104.537,122.727 104.044 C 122.327 103.719,122.417 103.977,122.962 104.722 M128.148 110.926 C 129.871 112.657,131.363 114.074,131.465 114.074 C 131.567 114.074,130.241 112.657,128.519 110.926 C 126.796 109.194,125.303 107.778,125.202 107.778 C 125.100 107.778,126.426 109.194,128.148 110.926 M137.876 120.463 C 139.891 122.449,141.706 124.074,141.910 124.074 C 142.113 124.074,141.725 123.629,141.047 123.085 C 140.369 122.541,138.554 120.916,137.014 119.474 C 135.473 118.032,135.861 118.477,137.876 120.463 M254.404 120.338 C 248.836 122.128,241.065 128.595,237.900 134.074 C 237.370 134.991,236.304 136.575,235.530 137.595 C 234.757 138.614,233.385 140.947,232.481 142.780 C 227.793 152.286,227.378 153.889,227.131 163.428 L 226.932 171.116 225.596 171.924 C 222.382 173.867,208.294 187.380,203.083 193.519 C 199.311 197.961,192.593 206.505,192.593 206.858 C 192.593 206.945,192.108 207.729,191.516 208.600 C 189.818 211.101,186.566 216.217,184.670 219.370 C 183.089 221.999,182.304 223.408,179.263 229.074 C 178.717 230.093,177.957 231.759,177.575 232.778 C 177.193 233.796,176.665 234.850,176.403 235.119 C 176.141 235.388,175.926 235.832,175.926 236.105 C 175.926 236.596,173.963 241.385,172.575 244.282 C 172.178 245.109,171.585 246.693,171.258 247.800 C 170.930 248.908,170.180 250.850,169.591 252.114 C 169.001 253.379,168.519 254.800,168.519 255.273 C 168.519 255.745,168.274 256.481,167.975 256.908 C 167.676 257.335,167.318 258.413,167.179 259.305 C 167.041 260.196,166.702 261.255,166.427 261.656 C 166.151 262.058,165.926 262.839,165.926 263.392 C 165.926 263.944,165.760 264.832,165.558 265.364 C 165.194 266.322,164.755 268.471,164.046 272.778 C 163.845 274.000,163.432 275.448,163.129 275.995 C 162.826 276.543,162.432 278.156,162.253 279.580 C 162.074 281.005,161.811 282.359,161.668 282.591 C 161.382 283.053,160.188 290.599,159.617 295.556 C 159.417 297.287,159.089 299.870,158.888 301.296 C 157.695 309.758,157.682 338.755,158.870 343.363 C 159.050 344.060,159.309 345.773,159.447 347.170 C 159.585 348.567,160.015 350.635,160.404 351.765 C 160.793 352.895,161.111 354.345,161.111 354.987 C 161.111 355.629,161.356 356.478,161.655 356.874 C 161.954 357.269,162.204 357.932,162.210 358.348 C 162.217 358.763,162.556 359.756,162.963 360.556 C 163.370 361.355,163.704 362.441,163.704 362.970 C 163.704 363.500,163.948 364.256,164.247 364.651 C 164.547 365.047,164.797 365.691,164.803 366.082 C 164.810 366.473,165.034 367.057,165.301 367.378 C 165.568 367.700,166.098 368.713,166.479 369.630 C 172.633 384.448,189.887 397.369,203.565 397.402 C 204.812 397.405,206.541 397.657,207.407 397.963 C 209.393 398.664,214.252 398.684,216.191 398.000 C 216.999 397.715,218.979 397.367,220.590 397.226 C 224.274 396.904,229.455 396.042,230.290 395.611 C 230.640 395.430,231.584 395.164,232.388 395.018 C 233.193 394.873,234.188 394.517,234.601 394.229 C 235.013 393.940,235.793 393.704,236.333 393.704 C 236.874 393.704,237.502 393.481,237.728 393.208 C 237.954 392.936,238.849 392.500,239.715 392.240 C 241.595 391.677,247.759 388.613,249.739 387.258 C 250.512 386.729,251.354 386.296,251.610 386.296 C 251.866 386.296,253.730 385.046,255.753 383.519 C 257.776 381.991,259.559 380.741,259.715 380.741 C 259.872 380.741,260.000 380.569,260.000 380.359 C 260.000 379.887,258.916 380.471,256.536 382.222 C 252.172 385.434,251.454 385.926,251.124 385.926 C 250.931 385.926,250.141 386.356,249.368 386.882 C 248.595 387.407,246.213 388.677,244.074 389.704 C 241.935 390.731,239.896 391.717,239.542 391.896 C 239.188 392.076,238.667 392.222,238.384 392.222 C 238.100 392.222,237.661 392.472,237.407 392.778 C 237.154 393.083,236.508 393.339,235.973 393.346 C 235.438 393.354,234.583 393.598,234.074 393.889 C 233.565 394.180,232.682 394.424,232.111 394.431 C 231.541 394.439,230.599 394.690,230.018 394.991 C 229.437 395.291,227.237 395.786,225.129 396.091 C 219.158 396.953,216.670 397.350,214.167 397.838 C 212.340 398.194,211.364 398.193,209.537 397.832 C 208.264 397.580,205.639 397.220,203.704 397.032 C 188.126 395.516,174.936 385.661,167.276 369.815 C 164.491 364.055,164.074 363.048,164.074 362.095 C 164.074 361.632,163.829 360.929,163.530 360.534 C 163.231 360.138,162.981 359.392,162.975 358.875 C 162.968 358.357,162.630 357.281,162.222 356.481 C 161.815 355.682,161.481 354.575,161.481 354.020 C 161.481 353.465,161.291 352.542,161.057 351.969 C 158.067 344.615,157.646 311.494,160.326 294.444 C 160.502 293.324,160.852 290.741,161.102 288.704 C 161.353 286.667,161.874 284.066,162.260 282.925 C 162.647 281.784,162.963 280.150,162.963 279.295 C 162.963 278.440,163.195 277.291,163.479 276.741 C 163.763 276.191,164.270 274.241,164.605 272.407 C 165.401 268.051,166.595 263.016,167.109 261.852 C 167.334 261.343,167.644 260.259,167.798 259.444 C 168.156 257.549,172.436 245.725,173.390 243.993 C 174.232 242.465,176.284 237.235,176.290 236.601 C 176.293 236.259,176.543 235.733,176.844 235.432 C 177.145 235.131,177.739 233.994,178.164 232.905 C 179.656 229.085,185.391 219.005,190.352 211.481 C 191.628 209.546,192.822 207.630,193.006 207.222 C 193.189 206.815,194.380 205.194,195.651 203.620 C 196.923 202.046,198.786 199.713,199.792 198.435 C 206.238 190.248,220.641 175.813,225.458 172.713 C 227.804 171.203,227.705 171.622,227.899 162.407 L 228.055 155.000 229.414 151.296 C 231.164 146.525,234.030 140.640,235.636 138.519 C 236.330 137.602,237.501 135.850,238.237 134.625 C 241.304 129.525,246.340 124.855,251.481 122.343 L 255.000 120.624 259.074 120.601 C 263.072 120.578,267.052 121.348,267.611 122.252 C 267.730 122.445,268.442 122.920,269.192 123.306 C 271.652 124.575,276.152 129.118,278.500 132.703 C 279.727 134.578,280.882 136.294,281.067 136.517 C 281.373 136.885,283.741 140.961,284.705 142.778 C 284.921 143.185,285.644 144.852,286.311 146.481 C 286.979 148.111,287.929 150.361,288.424 151.481 C 291.002 157.320,291.481 158.503,291.481 159.030 C 291.481 159.297,292.315 162.034,293.333 165.113 C 294.352 168.191,295.190 171.091,295.197 171.558 C 295.203 172.025,295.453 172.731,295.753 173.126 C 296.052 173.522,296.296 174.488,296.296 175.274 C 296.296 176.060,296.530 177.156,296.816 177.708 C 297.102 178.261,297.456 179.545,297.603 180.560 C 297.751 181.576,298.048 182.629,298.265 182.900 C 298.482 183.172,298.786 184.255,298.942 185.308 C 299.098 186.361,299.395 188.389,299.601 189.815 C 299.808 191.241,300.298 193.574,300.691 195.000 C 301.083 196.426,301.519 199.093,301.658 200.926 C 301.797 202.759,302.050 204.926,302.220 205.741 C 303.445 211.628,303.711 213.238,304.056 216.869 C 304.270 219.119,304.452 222.119,304.461 223.536 C 304.471 224.952,304.732 228.361,305.042 231.111 C 306.145 240.900,306.434 247.148,306.005 251.956 C 305.783 254.445,305.334 259.481,305.008 263.148 C 303.616 278.769,303.688 278.088,302.593 286.111 C 302.426 287.333,302.030 290.250,301.712 292.593 C 301.394 294.935,300.801 297.769,300.394 298.889 C 299.987 300.009,299.648 301.499,299.642 302.200 C 299.625 303.927,298.914 307.674,298.302 309.259 C 298.026 309.972,297.690 311.222,297.555 312.037 C 297.419 312.852,297.081 313.969,296.802 314.519 C 296.524 315.069,296.295 315.985,296.294 316.556 C 296.293 317.126,296.043 318.070,295.738 318.653 C 295.434 319.237,295.179 320.070,295.172 320.505 C 295.165 320.940,294.921 321.713,294.630 322.222 C 294.339 322.731,294.093 323.481,294.085 323.889 C 294.076 324.296,293.800 325.130,293.472 325.741 C 292.619 327.325,292.177 329.335,292.720 329.157 C 292.955 329.080,293.204 328.537,293.273 327.951 C 293.341 327.365,293.633 326.550,293.921 326.138 C 294.209 325.727,294.444 324.960,294.444 324.433 C 294.444 323.906,294.689 323.151,294.988 322.756 C 295.287 322.361,295.537 321.614,295.544 321.097 C 295.550 320.580,295.889 319.503,296.296 318.704 C 296.704 317.905,297.043 316.828,297.050 316.311 C 297.057 315.793,297.301 314.954,297.593 314.444 C 297.884 313.935,298.128 312.885,298.135 312.111 C 298.142 311.337,298.369 310.254,298.639 309.704 C 299.145 308.673,299.789 305.415,300.189 301.867 C 300.314 300.755,300.725 299.088,301.103 298.163 C 301.480 297.238,301.899 295.648,302.033 294.630 C 302.166 293.611,302.513 291.111,302.804 289.074 C 303.094 287.037,303.505 284.037,303.717 282.407 C 303.929 280.778,304.169 279.194,304.250 278.889 C 304.332 278.583,304.668 273.917,304.997 268.519 C 305.327 263.120,305.837 257.693,306.132 256.458 C 306.752 253.854,306.849 240.638,306.271 237.593 C 305.848 235.370,304.982 224.778,304.635 217.593 C 304.490 214.591,304.091 211.234,303.687 209.621 C 303.304 208.088,302.817 205.422,302.605 203.695 C 301.957 198.415,301.593 196.242,300.804 192.963 C 300.387 191.231,299.847 188.398,299.603 186.667 C 299.359 184.935,298.932 183.068,298.654 182.518 C 298.376 181.968,298.148 180.918,298.148 180.185 C 298.148 179.452,297.922 178.402,297.645 177.852 C 297.368 177.302,297.034 176.031,296.902 175.027 C 296.770 174.023,296.432 172.940,296.149 172.620 C 295.867 172.299,295.551 171.370,295.447 170.556 C 295.343 169.741,294.897 167.991,294.456 166.667 C 294.015 165.343,293.230 162.843,292.711 161.111 C 291.725 157.818,291.361 156.848,290.053 154.034 C 289.616 153.095,289.259 152.073,289.259 151.764 C 289.259 151.455,289.009 150.994,288.704 150.741 C 288.398 150.487,288.148 150.008,288.148 149.677 C 288.148 149.345,287.666 148.057,287.078 146.813 C 286.490 145.570,285.896 144.040,285.758 143.413 C 285.621 142.786,285.276 142.081,284.992 141.845 C 284.708 141.610,283.798 140.223,282.970 138.764 C 279.774 133.135,278.179 130.879,275.024 127.530 C 272.368 124.710,267.510 121.111,266.359 121.111 C 265.999 121.111,265.496 120.903,265.241 120.648 C 264.694 120.101,255.924 119.850,254.404 120.338 M144.298 125.741 C 145.722 127.077,148.535 128.875,147.782 127.968 C 147.504 127.633,146.764 127.101,146.138 126.785 C 145.512 126.470,144.576 125.856,144.057 125.421 C 143.538 124.986,143.647 125.130,144.298 125.741 M210.827 127.037 C 210.827 127.750,210.903 128.042,210.996 127.685 C 211.089 127.329,211.089 126.745,210.996 126.389 C 210.903 126.032,210.827 126.324,210.827 127.037 M148.889 129.038 C 148.889 129.140,149.639 129.740,150.556 130.370 C 151.472 131.001,152.222 131.434,152.222 131.332 C 152.222 131.230,151.472 130.631,150.556 130.000 C 149.639 129.369,148.889 128.937,148.889 129.038 M211.596 134.259 C 211.598 135.481,211.667 135.937,211.750 135.271 C 211.832 134.605,211.831 133.605,211.746 133.049 C 211.662 132.492,211.594 133.037,211.596 134.259 M160.370 136.469 C 160.370 136.571,161.204 137.076,162.222 137.593 C 163.241 138.109,164.074 138.448,164.074 138.346 C 164.074 138.244,163.241 137.738,162.222 137.222 C 161.204 136.706,160.370 136.367,160.370 136.469 M211.938 138.148 C 211.938 138.861,212.014 139.153,212.107 138.796 C 212.200 138.440,212.200 137.856,212.107 137.500 C 212.014 137.144,211.938 137.435,211.938 138.148 M167.037 140.000 C 167.750 140.390,168.500 140.710,168.704 140.710 C 168.907 140.710,168.491 140.390,167.778 140.000 C 167.065 139.610,166.315 139.290,166.111 139.290 C 165.907 139.290,166.324 139.610,167.037 140.000 M169.259 140.924 C 169.259 141.172,173.749 143.412,173.914 143.246 C 173.989 143.171,172.972 142.579,171.655 141.929 C 170.337 141.279,169.259 140.827,169.259 140.924 M212.347 145.556 C 212.347 147.083,212.412 147.708,212.492 146.944 C 212.572 146.181,212.572 144.931,212.492 144.167 C 212.412 143.403,212.347 144.028,212.347 145.556 M212.720 152.037 C 212.721 153.667,212.786 154.287,212.864 153.416 C 212.942 152.545,212.941 151.212,212.862 150.453 C 212.782 149.695,212.718 150.407,212.720 152.037 M200.926 153.333 C 201.333 153.508,202.000 153.647,202.407 153.641 C 203.003 153.632,202.967 153.572,202.222 153.333 C 200.956 152.928,199.982 152.928,200.926 153.333 M205.741 154.437 C 206.556 154.586,207.556 154.827,207.963 154.972 C 208.442 155.143,208.377 155.036,207.778 154.668 C 207.269 154.356,206.269 154.115,205.556 154.134 L 204.259 154.167 205.741 154.437 M209.722 155.450 C 210.282 155.535,211.199 155.535,211.759 155.450 C 212.319 155.366,211.861 155.296,210.741 155.296 C 209.620 155.296,209.162 155.366,209.722 155.450 M239.259 201.707 C 234.318 204.101,220.370 218.568,220.370 221.300 C 220.370 221.405,219.727 222.446,218.941 223.615 C 216.994 226.509,208.519 242.658,208.519 243.473 C 208.519 243.563,207.955 244.861,207.265 246.356 C 205.638 249.886,202.593 257.498,202.593 258.035 C 202.593 258.265,202.009 259.816,201.296 261.481 C 200.583 263.147,200.000 264.962,200.000 265.514 C 200.000 266.067,199.813 266.705,199.585 266.933 C 199.357 267.161,199.041 267.986,198.884 268.767 C 198.726 269.547,198.257 271.019,197.843 272.037 C 197.429 273.056,196.900 274.889,196.668 276.111 C 196.436 277.333,196.008 278.805,195.716 279.382 C 195.424 279.959,195.182 280.959,195.177 281.604 C 195.173 282.250,194.839 283.504,194.436 284.392 C 194.033 285.280,193.704 286.577,193.704 287.275 C 193.704 287.972,193.454 289.141,193.148 289.872 C 192.843 290.603,192.593 291.928,192.593 292.816 C 192.593 293.703,192.358 295.058,192.072 295.826 C 191.428 297.551,190.815 301.502,190.360 306.852 C 190.170 309.093,189.854 312.259,189.659 313.889 C 188.623 322.528,189.143 333.641,190.803 338.333 C 191.020 338.944,191.323 340.194,191.477 341.111 C 191.799 343.024,192.510 345.118,193.111 345.926 C 193.339 346.231,193.851 347.124,194.249 347.908 C 196.408 352.166,203.977 354.532,208.148 352.254 C 208.861 351.864,209.944 351.304,210.556 351.009 C 214.738 348.991,224.666 337.975,228.991 330.556 C 229.822 329.130,230.788 327.630,231.137 327.222 C 231.808 326.439,236.906 316.425,239.811 310.185 C 247.231 294.246,254.259 271.173,257.185 253.148 C 257.694 250.011,258.000 247.438,258.889 238.811 C 259.889 229.106,259.082 218.518,256.804 211.434 C 253.523 201.233,247.328 197.799,239.259 201.707 M248.756 201.346 C 259.576 206.481,261.680 234.649,253.690 267.407 C 253.176 269.516,252.316 272.990,251.717 275.383 C 251.187 277.499,247.316 289.713,246.673 291.296 C 246.508 291.704,245.747 293.870,244.982 296.111 C 244.217 298.352,243.103 301.269,242.507 302.593 C 241.910 303.917,241.205 305.500,240.941 306.111 C 237.694 313.613,231.468 326.022,230.337 327.246 C 229.948 327.667,229.630 328.157,229.630 328.336 C 229.630 330.711,216.122 346.750,211.852 349.444 C 210.935 350.023,209.552 350.912,208.779 351.421 C 207.089 352.534,202.459 352.973,200.218 352.233 C 198.734 351.743,194.444 348.003,194.444 347.199 C 194.444 346.924,194.060 346.134,193.591 345.442 C 193.121 344.750,192.528 343.201,192.272 341.999 C 192.016 340.798,191.579 339.065,191.301 338.148 C 189.536 332.326,189.348 323.001,190.722 309.444 C 191.672 300.079,191.919 298.200,192.407 296.667 C 192.698 295.750,193.039 294.083,193.165 292.963 C 193.291 291.843,193.631 290.298,193.919 289.530 C 194.208 288.762,194.450 287.512,194.456 286.752 C 194.463 285.992,194.713 285.047,195.012 284.651 C 195.311 284.256,195.556 283.251,195.556 282.419 C 195.556 281.587,195.807 280.547,196.114 280.108 C 196.422 279.669,197.008 277.681,197.418 275.690 C 197.827 273.699,198.409 271.693,198.711 271.233 C 199.013 270.773,199.259 269.945,199.259 269.394 C 199.259 268.843,199.516 268.108,199.830 267.761 C 200.143 267.415,200.538 266.318,200.706 265.325 C 200.874 264.331,201.449 262.602,201.984 261.481 C 202.518 260.361,202.957 259.165,202.959 258.824 C 202.963 258.197,204.571 253.958,206.097 250.556 C 206.553 249.537,207.733 246.870,208.719 244.630 C 211.014 239.415,216.100 229.395,218.194 225.966 C 219.085 224.505,220.315 222.494,220.926 221.496 C 224.565 215.555,234.174 205.019,237.459 203.368 C 238.347 202.921,239.324 202.425,239.630 202.264 C 239.935 202.103,240.685 201.710,241.296 201.390 C 242.828 200.588,247.106 200.563,248.756 201.346 M261.204 336.181 C 261.560 336.274,262.144 336.274,262.500 336.181 C 262.856 336.088,262.565 336.012,261.852 336.012 C 261.139 336.012,260.847 336.088,261.204 336.181 M248.499 341.019 L 247.222 342.407 248.611 341.131 C 249.904 339.943,250.170 339.630,249.887 339.630 C 249.826 339.630,249.201 340.255,248.499 341.019 " stroke="none" fill="#e6d799" fill-rule="evenodd"></path><path id="path4" d="M95.313 8.349 C 95.193 8.663,95.277 11.871,95.500 15.479 C 95.723 19.086,95.999 23.835,96.114 26.032 C 96.480 33.078,97.811 44.326,98.482 46.043 C 98.706 46.616,98.889 47.715,98.889 48.485 C 98.889 49.254,99.222 50.853,99.630 52.037 C 100.037 53.221,100.370 54.592,100.370 55.082 C 100.370 55.573,100.568 56.339,100.809 56.784 C 101.050 57.229,101.363 58.259,101.503 59.074 C 101.993 61.915,104.768 70.430,105.884 72.514 C 106.111 72.938,106.296 73.638,106.296 74.069 C 106.296 74.500,106.625 75.470,107.026 76.223 C 107.427 76.976,108.509 79.310,109.429 81.409 C 112.347 88.066,116.887 95.645,124.225 106.111 C 127.288 110.481,141.438 123.883,145.745 126.494 C 146.428 126.908,147.290 127.518,147.660 127.850 C 149.002 129.051,153.973 132.480,156.128 133.691 C 157.341 134.372,158.587 135.145,158.897 135.409 C 159.638 136.039,175.072 143.711,178.156 144.983 C 179.476 145.527,181.056 146.194,181.667 146.465 C 187.385 149.004,203.437 154.054,205.893 154.087 C 206.420 154.094,207.269 154.339,207.778 154.630 C 208.287 154.921,209.599 155.165,210.693 155.172 L 212.683 155.185 212.441 148.241 C 212.003 135.689,209.996 118.587,208.126 111.481 C 207.939 110.769,207.125 107.519,206.318 104.259 C 204.680 97.647,204.512 97.094,202.736 92.481 C 202.046 90.688,201.481 88.917,201.481 88.545 C 201.481 88.173,201.231 87.661,200.926 87.407 C 200.620 87.154,200.370 86.662,200.370 86.315 C 200.370 85.626,193.229 71.291,192.431 70.378 C 192.161 70.068,191.813 69.401,191.658 68.894 C 191.503 68.388,190.900 67.346,190.318 66.579 C 189.736 65.813,188.785 64.560,188.205 63.796 C 187.626 63.032,186.893 61.907,186.577 61.295 C 186.260 60.684,185.631 59.850,185.178 59.444 C 184.725 59.037,183.705 57.751,182.912 56.586 C 177.083 48.026,158.321 32.714,145.556 26.098 C 144.028 25.306,141.414 23.860,139.746 22.885 C 138.079 21.909,136.547 21.111,136.341 21.111 C 136.135 21.111,134.666 20.517,133.076 19.791 C 128.013 17.478,116.810 13.158,114.274 12.541 C 113.467 12.344,112.625 12.033,112.404 11.849 C 112.182 11.665,111.268 11.397,110.374 11.254 C 109.479 11.111,108.321 10.771,107.800 10.499 C 107.278 10.227,106.352 9.998,105.741 9.989 C 105.130 9.981,104.213 9.736,103.704 9.444 C 103.194 9.153,102.172 8.909,101.431 8.902 C 100.691 8.895,99.607 8.640,99.024 8.336 C 97.619 7.603,95.597 7.610,95.313 8.349 M98.647 8.704 C 99.378 9.009,100.493 9.259,101.124 9.259 C 101.755 9.259,102.635 9.457,103.080 9.698 C 103.525 9.939,104.556 10.252,105.370 10.392 C 106.185 10.533,107.685 10.935,108.704 11.284 C 112.287 12.515,112.790 12.668,114.196 12.955 C 114.977 13.114,115.802 13.431,116.030 13.659 C 116.258 13.887,116.796 14.074,117.226 14.074 C 117.656 14.074,118.998 14.469,120.208 14.951 C 124.984 16.856,130.837 19.295,133.187 20.361 C 134.546 20.977,135.805 21.481,135.985 21.481 C 136.164 21.481,136.933 21.872,137.693 22.348 C 138.452 22.825,140.991 24.220,143.333 25.448 C 158.732 33.519,173.974 45.774,182.754 57.144 C 185.374 60.536,191.479 69.324,191.480 69.706 C 191.481 69.850,191.875 70.547,192.356 71.256 C 193.496 72.936,199.996 86.066,200.012 86.720 C 200.018 86.996,200.268 87.546,200.567 87.941 C 200.866 88.337,201.111 88.963,201.111 89.334 C 201.111 89.705,201.458 90.798,201.882 91.763 C 203.525 95.504,203.704 95.968,203.704 96.481 C 203.704 96.773,203.935 97.559,204.218 98.228 C 204.502 98.897,205.021 100.778,205.374 102.407 C 205.726 104.037,206.242 106.120,206.522 107.037 C 208.130 112.314,210.265 125.276,211.128 135.000 C 211.609 140.415,212.213 154.159,211.987 154.525 C 211.710 154.973,210.089 154.869,208.198 154.282 C 207.254 153.989,205.231 153.476,203.704 153.142 C 202.176 152.808,200.259 152.313,199.444 152.041 C 198.630 151.769,196.713 151.187,195.185 150.747 C 193.657 150.308,192.074 149.815,191.667 149.653 C 191.259 149.491,189.926 148.989,188.704 148.538 C 187.481 148.087,185.898 147.492,185.185 147.217 C 184.472 146.941,182.722 146.267,181.296 145.719 C 176.931 144.039,162.105 136.894,159.878 135.396 C 159.232 134.962,157.704 134.051,156.481 133.372 C 155.259 132.693,153.426 131.522,152.407 130.769 C 151.389 130.016,149.806 128.866,148.889 128.213 C 142.081 123.365,138.729 120.552,133.143 115.000 C 126.892 108.787,125.019 106.539,120.338 99.630 C 115.440 92.400,113.121 88.320,110.022 81.481 C 108.776 78.731,107.525 75.981,107.242 75.370 C 106.958 74.759,106.644 73.843,106.543 73.333 C 106.350 72.359,103.962 65.655,103.411 64.540 C 103.234 64.182,102.792 62.556,102.430 60.926 C 102.067 59.296,101.539 57.416,101.256 56.747 C 100.972 56.078,100.741 55.062,100.741 54.490 C 100.741 53.918,100.407 52.480,100.000 51.296 C 99.593 50.112,99.260 48.544,99.261 47.812 C 99.262 47.080,99.019 45.731,98.722 44.815 C 97.897 42.277,96.717 30.811,96.301 21.296 C 96.096 16.611,95.827 11.915,95.703 10.861 C 95.366 8.005,95.950 7.577,98.647 8.704 " stroke="none" fill="#a3e47e" fill-rule="evenodd"></path></g></svg>