<svg id="svg" version="1.1" xmlns="http://www.w3.org/2000/svg" xmlns:xlink="http://www.w3.org/1999/xlink" width="400" height="400" viewBox="0, 0, 400,400"><g id="svgg"><path id="path0" d="M234.815 87.019 C 228.354 89.033,223.266 93.528,217.332 102.466 C 209.918 113.631,207.816 120.154,207.790 132.077 L 207.778 137.303 205.833 138.599 C 201.090 141.760,186.712 156.026,181.465 162.778 C 180.357 164.204,178.908 165.965,178.246 166.692 C 176.812 168.266,174.476 171.408,173.059 173.667 C 172.497 174.564,171.104 176.730,169.963 178.482 C 166.065 184.466,161.767 191.924,159.576 196.504 C 158.372 199.021,157.225 201.180,157.027 201.303 C 156.829 201.425,156.667 201.859,156.667 202.268 C 156.667 202.676,156.250 203.921,155.741 205.035 C 155.231 206.148,154.815 207.177,154.815 207.320 C 154.815 207.464,154.416 208.418,153.928 209.439 C 152.945 211.499,150.331 218.250,149.624 220.556 C 149.375 221.370,148.940 222.584,148.659 223.253 C 148.378 223.922,148.148 224.803,148.148 225.210 C 148.148 225.617,147.879 226.569,147.550 227.327 C 147.221 228.084,146.735 229.704,146.470 230.926 C 146.205 232.148,145.746 234.231,145.449 235.556 C 145.152 236.880,144.800 238.717,144.667 239.639 C 144.533 240.562,144.173 241.800,143.866 242.391 C 143.559 242.983,143.207 244.478,143.084 245.715 C 142.961 246.951,142.691 248.292,142.484 248.694 C 142.277 249.096,141.972 250.596,141.806 252.027 C 141.640 253.459,141.252 256.296,140.944 258.333 C 140.635 260.370,140.211 263.537,140.001 265.370 C 139.791 267.204,139.545 268.954,139.456 269.259 C 138.417 272.802,138.549 304.095,139.623 309.074 C 139.799 309.889,140.137 311.806,140.375 313.333 C 140.613 314.861,141.042 316.783,141.330 317.605 C 141.617 318.427,141.858 319.593,141.865 320.198 C 141.872 320.802,142.116 321.713,142.407 322.222 C 142.699 322.731,142.944 323.481,142.952 323.889 C 142.961 324.296,143.240 325.130,143.573 325.741 C 143.906 326.352,144.307 327.519,144.464 328.333 C 144.797 330.056,145.598 332.286,146.145 333.013 C 146.355 333.291,146.847 334.269,147.239 335.185 C 154.056 351.129,167.834 361.030,186.111 363.120 C 186.926 363.213,188.632 363.488,189.902 363.732 C 191.685 364.074,192.656 364.075,194.161 363.736 C 197.841 362.909,199.819 362.559,202.778 362.214 C 206.841 361.740,208.927 361.327,209.883 360.809 C 210.328 360.568,211.254 360.370,211.942 360.370 C 212.629 360.370,213.515 360.126,213.911 359.827 C 214.306 359.528,214.963 359.279,215.370 359.274 C 215.778 359.269,216.938 358.889,217.950 358.429 C 220.557 357.243,229.670 352.692,230.556 352.134 C 235.909 348.762,236.481 348.352,241.405 344.365 C 244.892 341.541,257.778 326.247,257.778 324.932 C 257.778 324.743,258.208 324.014,258.733 323.313 C 259.259 322.611,260.162 321.110,260.740 319.978 C 261.318 318.845,262.055 317.700,262.377 317.432 C 262.699 317.165,262.963 316.694,262.963 316.385 C 262.963 316.075,263.431 315.054,264.003 314.115 C 264.575 313.176,265.425 311.456,265.892 310.292 C 266.359 309.129,266.974 307.984,267.259 307.747 C 267.544 307.510,267.778 307.052,267.778 306.729 C 267.778 306.120,270.011 300.555,270.947 298.832 C 271.241 298.291,271.481 297.436,271.481 296.933 C 271.481 296.429,271.731 295.809,272.037 295.556 C 272.343 295.302,272.593 294.652,272.593 294.111 C 272.593 293.570,272.837 292.779,273.135 292.353 C 273.434 291.926,273.836 290.931,274.029 290.141 C 274.358 288.791,274.588 288.051,275.595 285.093 C 275.821 284.431,276.140 283.222,276.304 282.407 C 276.468 281.593,276.859 280.259,277.174 279.444 C 277.488 278.630,277.753 277.455,277.762 276.833 C 277.770 276.212,277.974 275.508,278.213 275.268 C 278.632 274.849,278.773 274.142,279.602 268.255 C 279.809 266.786,280.239 264.961,280.557 264.199 C 280.875 263.437,281.397 260.889,281.716 258.537 C 282.036 256.184,282.449 253.176,282.634 251.852 C 283.406 246.324,284.111 239.460,284.459 234.074 C 284.663 230.917,284.991 227.083,285.188 225.556 C 286.486 215.493,286.490 208.951,285.202 199.074 C 284.989 197.444,284.655 193.361,284.460 190.000 C 284.004 182.152,283.483 176.468,283.175 175.969 C 282.824 175.401,281.972 170.272,281.692 167.037 C 281.560 165.509,281.055 162.509,280.570 160.370 C 279.440 155.382,278.889 152.276,278.889 150.893 C 278.889 150.289,278.664 149.466,278.389 149.064 C 278.113 148.662,277.783 147.539,277.654 146.568 C 277.525 145.597,277.167 144.313,276.858 143.716 C 276.549 143.118,276.295 142.079,276.294 141.407 C 276.293 140.735,276.043 139.708,275.738 139.124 C 275.434 138.541,275.185 137.746,275.185 137.357 C 275.185 136.969,274.352 134.174,273.333 131.147 C 272.315 128.120,271.481 125.357,271.481 125.008 C 271.481 124.659,271.252 123.931,270.972 123.390 C 269.884 121.291,268.889 118.972,268.889 118.535 C 268.889 118.283,268.648 117.635,268.355 117.094 C 267.318 115.188,265.185 110.085,265.185 109.512 C 265.185 109.193,265.033 108.839,264.847 108.724 C 264.661 108.609,263.830 107.277,262.999 105.763 C 262.168 104.250,261.338 102.918,261.153 102.804 C 260.969 102.690,260.451 101.887,260.004 101.020 C 259.557 100.154,258.900 99.111,258.544 98.704 C 258.189 98.296,257.526 97.342,257.072 96.583 C 252.969 89.722,241.690 84.876,234.815 87.019 M229.482 166.862 C 239.509 172.038,242.444 196.457,236.424 224.630 C 236.120 226.056,235.724 228.056,235.546 229.074 C 235.367 230.093,235.058 231.509,234.859 232.222 C 234.660 232.935,234.226 234.685,233.894 236.111 C 232.699 241.240,232.168 243.198,231.130 246.296 C 230.551 248.028,229.375 251.694,228.519 254.444 C 225.072 265.509,215.435 287.214,211.074 293.737 C 210.585 294.468,209.602 296.022,208.889 297.190 C 207.736 299.080,203.166 305.447,202.619 305.926 C 202.503 306.028,201.275 307.394,199.891 308.963 C 197.271 311.932,192.610 316.059,190.782 317.030 C 190.200 317.340,189.178 317.901,188.513 318.277 C 184.048 320.804,174.968 317.579,173.835 313.065 C 173.719 312.602,173.490 312.222,173.328 312.222 C 172.940 312.222,171.838 309.145,171.472 307.037 C 171.313 306.120,170.932 304.704,170.626 303.889 C 168.282 297.646,169.218 270.162,172.067 261.561 C 172.356 260.688,172.593 259.334,172.593 258.551 C 172.593 257.768,172.843 256.529,173.148 255.798 C 173.454 255.067,173.704 253.871,173.704 253.142 C 173.704 252.412,173.956 251.326,174.265 250.729 C 174.574 250.131,174.931 248.848,175.057 247.877 C 175.184 246.906,175.454 245.900,175.658 245.641 C 175.861 245.383,176.155 244.550,176.310 243.790 C 176.465 243.029,176.778 241.495,177.006 240.379 C 177.234 239.264,177.751 237.717,178.154 236.942 C 178.558 236.167,178.889 235.153,178.889 234.689 C 178.889 234.225,179.134 233.522,179.433 233.126 C 179.732 232.731,179.982 231.964,179.988 231.422 C 179.995 230.880,180.583 229.073,181.296 227.407 C 182.009 225.742,182.593 224.010,182.593 223.560 C 182.593 223.109,182.740 222.582,182.920 222.389 C 183.100 222.195,183.860 220.454,184.610 218.519 C 187.672 210.616,195.505 194.710,198.814 189.674 C 199.567 188.529,200.266 187.415,200.369 187.197 C 202.607 182.457,214.434 169.831,218.333 168.019 C 219.556 167.452,220.972 166.753,221.481 166.466 C 223.096 165.558,227.365 165.770,229.482 166.862 " stroke="none" fill="#fc8405" fill-rule="evenodd"></path><path id="path1" d="M0.000 200.000 L 0.000 400.000 200.000 400.000 L 400.000 400.000 400.000 200.000 L 400.000 0.000 200.000 0.000 L 0.000 0.000 0.000 200.000 M245.044 86.252 C 248.564 87.377,257.778 94.448,257.778 96.024 C 257.778 96.212,258.368 97.141,259.090 98.090 C 260.809 100.350,262.078 102.315,263.432 104.815 C 264.039 105.935,264.931 107.323,265.416 107.899 C 265.900 108.475,266.296 109.243,266.296 109.607 C 266.296 109.970,266.796 111.371,267.407 112.718 C 268.019 114.066,268.519 115.402,268.519 115.687 C 268.519 115.972,268.769 116.413,269.074 116.667 C 269.380 116.920,269.630 117.539,269.630 118.042 C 269.630 118.546,269.963 119.381,270.370 119.899 C 270.778 120.417,271.116 121.110,271.123 121.439 C 271.129 121.768,271.379 122.361,271.678 122.756 C 271.978 123.151,272.222 123.781,272.222 124.155 C 272.222 124.783,273.055 127.593,274.888 133.148 C 275.292 134.370,275.752 135.954,275.911 136.667 C 276.069 137.380,276.470 138.463,276.801 139.074 C 277.132 139.685,277.404 140.738,277.405 141.413 C 277.406 142.089,277.607 143.005,277.852 143.450 C 278.096 143.895,278.409 145.093,278.547 146.111 C 278.685 147.130,278.978 148.463,279.198 149.074 C 279.418 149.685,279.867 152.102,280.197 154.444 C 280.527 156.787,281.036 159.336,281.328 160.109 C 281.859 161.515,282.222 163.597,283.147 170.556 C 283.418 172.593,283.813 175.009,284.024 175.926 C 284.586 178.369,285.142 184.891,285.381 191.852 C 285.501 195.344,285.860 199.233,286.219 200.926 C 287.030 204.756,287.131 220.434,286.360 222.778 C 286.092 223.593,285.633 228.176,285.340 232.963 C 284.717 243.145,284.318 246.829,282.277 261.217 C 282.081 262.599,281.710 263.983,281.454 264.292 C 280.963 264.883,280.666 266.312,279.958 271.481 C 279.721 273.213,279.300 275.080,279.023 275.630 C 278.746 276.180,278.513 277.263,278.505 278.037 C 278.498 278.811,278.254 279.861,277.963 280.370 C 277.672 280.880,277.428 281.719,277.421 282.237 C 277.413 282.754,277.074 283.831,276.667 284.630 C 276.259 285.429,275.925 286.422,275.925 286.838 C 275.924 287.253,275.590 288.138,275.184 288.805 C 274.777 289.472,274.439 290.472,274.433 291.027 C 274.426 291.583,274.176 292.361,273.877 292.756 C 273.578 293.151,273.333 293.923,273.333 294.470 C 273.333 295.017,273.083 295.672,272.778 295.926 C 272.472 296.180,272.222 296.883,272.222 297.488 C 272.222 298.094,271.986 299.032,271.696 299.572 C 270.300 302.183,268.519 306.273,268.519 306.868 C 268.519 307.235,268.291 307.797,268.014 308.119 C 267.736 308.441,267.205 309.518,266.833 310.513 C 266.462 311.508,265.522 313.305,264.745 314.507 C 263.969 315.709,263.333 317.019,263.333 317.420 C 263.333 317.820,263.175 318.148,262.982 318.148 C 262.789 318.148,262.128 319.200,261.515 320.486 C 260.901 321.772,259.976 323.281,259.459 323.839 C 258.942 324.396,258.519 325.017,258.519 325.217 C 258.519 325.566,257.461 327.391,257.035 327.778 C 256.923 327.880,255.680 329.463,254.273 331.296 C 249.470 337.553,243.097 344.497,240.641 346.148 C 239.779 346.727,238.520 347.670,237.843 348.242 C 237.166 348.815,235.916 349.719,235.066 350.251 C 234.215 350.784,233.385 351.445,233.222 351.721 C 233.059 351.996,232.618 352.222,232.241 352.222 C 231.864 352.222,230.664 352.825,229.574 353.563 C 227.212 355.160,223.471 357.027,220.706 357.986 C 219.605 358.369,218.306 358.978,217.820 359.341 C 217.335 359.703,216.575 360.000,216.132 360.000 C 215.689 360.000,215.003 360.245,214.608 360.544 C 214.212 360.843,213.331 361.093,212.650 361.099 C 211.968 361.106,210.968 361.342,210.428 361.625 C 209.212 362.261,205.940 362.861,202.037 363.165 C 200.407 363.292,198.157 363.655,197.037 363.973 C 194.583 364.668,188.655 364.742,187.442 364.093 C 186.976 363.843,184.902 363.517,182.834 363.367 C 171.418 362.544,157.634 354.140,151.188 344.074 C 150.470 342.954,149.572 341.580,149.192 341.022 C 148.236 339.617,145.926 334.968,145.926 334.448 C 145.926 334.213,145.676 333.771,145.370 333.466 C 145.065 333.160,144.810 332.547,144.803 332.103 C 144.797 331.659,144.547 330.973,144.247 330.577 C 143.948 330.182,143.703 329.432,143.701 328.911 C 143.700 328.389,143.368 327.463,142.963 326.852 C 142.558 326.241,142.226 325.219,142.225 324.582 C 142.223 323.945,141.972 323.217,141.667 322.963 C 141.353 322.703,141.111 321.896,141.111 321.111 C 141.111 320.346,140.873 319.151,140.583 318.456 C 140.102 317.305,139.813 315.698,138.427 306.481 C 138.140 304.567,137.990 298.799,138.005 290.185 C 138.030 275.414,138.433 269.222,140.151 257.222 C 141.264 249.452,141.416 248.591,141.818 247.840 C 142.040 247.425,142.223 246.283,142.225 245.302 C 142.226 244.321,142.498 243.019,142.830 242.407 C 143.162 241.796,143.660 240.130,143.938 238.704 C 144.215 237.278,144.594 235.444,144.781 234.630 C 144.967 233.815,145.357 231.979,145.648 230.550 C 145.939 229.121,146.371 227.590,146.607 227.148 C 146.844 226.707,147.037 225.911,147.037 225.380 C 147.037 224.849,147.370 223.762,147.778 222.963 C 148.185 222.164,148.519 221.241,148.519 220.910 C 148.519 220.580,149.023 219.161,149.638 217.758 C 150.254 216.354,151.105 214.076,151.529 212.696 C 151.953 211.315,152.427 210.019,152.583 209.815 C 153.164 209.056,155.926 202.475,155.926 201.850 C 155.926 201.494,156.176 200.994,156.481 200.741 C 156.787 200.487,157.039 200.092,157.042 199.862 C 157.061 198.429,162.509 188.519,168.199 179.571 C 170.615 175.770,172.593 172.486,172.593 172.274 C 172.593 172.062,172.813 171.755,173.083 171.592 C 173.353 171.430,173.978 170.713,174.472 170.000 C 174.966 169.287,175.957 168.037,176.675 167.222 C 177.392 166.407,178.925 164.480,180.081 162.940 C 184.341 157.264,200.612 141.027,204.828 138.245 L 206.938 136.852 207.120 129.074 C 207.346 119.411,209.598 112.056,214.546 104.815 C 215.172 103.898,216.832 101.449,218.233 99.373 C 225.558 88.523,236.064 83.381,245.044 86.252 M222.222 167.222 C 221.969 167.528,221.375 167.778,220.902 167.778 C 220.430 167.778,219.937 167.950,219.808 168.160 C 219.678 168.370,218.830 168.891,217.923 169.317 C 214.982 170.700,201.111 185.778,201.111 187.593 C 201.111 187.732,200.058 189.538,198.770 191.608 C 196.789 194.793,191.331 205.437,189.055 210.556 C 185.886 217.681,183.333 223.941,183.333 224.587 C 183.333 225.018,182.826 226.443,182.206 227.753 C 181.586 229.064,180.980 230.853,180.860 231.731 C 180.740 232.608,180.414 233.514,180.135 233.745 C 179.857 233.976,179.630 234.592,179.630 235.114 C 179.630 235.635,179.283 236.778,178.860 237.653 C 178.436 238.527,177.916 240.455,177.704 241.936 C 177.491 243.418,177.004 245.149,176.622 245.784 C 176.239 246.420,175.926 247.591,175.926 248.387 C 175.926 249.184,175.701 250.164,175.425 250.566 C 175.150 250.968,174.822 252.192,174.697 253.288 C 174.571 254.383,174.213 255.669,173.901 256.145 C 173.564 256.658,173.333 257.843,173.333 259.054 C 173.333 260.177,173.092 261.724,172.796 262.493 C 172.203 264.033,171.359 271.336,170.343 283.704 C 169.798 290.341,170.575 301.856,171.722 304.148 C 171.997 304.698,172.222 305.584,172.222 306.116 C 172.222 307.472,173.326 310.755,174.136 311.809 C 174.509 312.295,174.815 312.903,174.815 313.161 C 174.815 314.084,178.841 317.332,180.787 317.978 C 182.960 318.700,185.990 318.553,187.668 317.644 C 188.238 317.335,189.448 316.704,190.358 316.241 C 194.817 313.971,206.883 300.198,209.318 294.598 C 209.577 294.004,210.127 293.161,210.542 292.724 C 212.695 290.455,222.560 268.899,225.861 259.250 C 231.926 241.526,234.624 231.125,236.621 217.778 C 241.282 186.619,236.696 166.667,224.872 166.667 C 223.378 166.667,222.537 166.843,222.222 167.222 " stroke="none" fill="#fcfcfb" fill-rule="evenodd"></path><path id="path2" d="M236.574 86.187 C 237.032 86.276,237.782 86.276,238.241 86.187 C 238.699 86.099,238.324 86.027,237.407 86.027 C 236.491 86.027,236.116 86.099,236.574 86.187 M241.019 86.187 C 241.477 86.276,242.227 86.276,242.685 86.187 C 243.144 86.099,242.769 86.027,241.852 86.027 C 240.935 86.027,240.560 86.099,241.019 86.187 M231.852 87.593 C 231.343 87.884,231.093 88.122,231.296 88.122 C 231.500 88.122,232.083 87.884,232.593 87.593 C 233.102 87.301,233.352 87.063,233.148 87.063 C 232.944 87.063,232.361 87.301,231.852 87.593 M249.630 88.991 C 249.630 89.062,250.171 89.516,250.833 90.001 C 251.578 90.546,251.837 90.636,251.512 90.236 C 251.019 89.628,249.630 88.710,249.630 88.991 M254.630 93.333 C 256.045 94.759,257.286 95.926,257.388 95.926 C 257.489 95.926,256.415 94.759,255.000 93.333 C 253.585 91.907,252.344 90.741,252.242 90.741 C 252.140 90.741,253.215 91.907,254.630 93.333 M222.950 93.981 L 220.926 96.111 223.056 94.087 C 224.227 92.973,225.185 92.015,225.185 91.957 C 225.185 91.682,224.831 92.003,222.950 93.981 M220.319 96.944 C 219.253 98.231,218.802 98.889,218.985 98.889 C 219.087 98.889,219.616 98.306,220.160 97.593 C 221.169 96.270,221.291 95.770,220.319 96.944 M216.318 102.870 C 215.640 103.838,215.399 104.349,215.783 104.006 C 216.454 103.407,217.962 101.111,217.685 101.111 C 217.611 101.111,216.995 101.903,216.318 102.870 M266.693 112.407 C 266.693 112.611,266.931 113.194,267.222 113.704 C 267.513 114.213,267.752 114.463,267.752 114.259 C 267.752 114.056,267.513 113.472,267.222 112.963 C 266.931 112.454,266.693 112.204,266.693 112.407 M269.302 118.751 C 269.279 119.184,269.551 119.768,269.907 120.047 C 270.471 120.489,270.500 120.483,270.132 120.000 C 269.900 119.694,269.627 119.111,269.527 118.704 C 269.354 118.000,269.343 118.003,269.302 118.751 M207.529 126.111 C 207.531 127.537,207.598 128.075,207.678 127.307 C 207.758 126.538,207.757 125.371,207.675 124.714 C 207.593 124.056,207.527 124.685,207.529 126.111 M201.462 141.389 L 200.185 142.778 201.574 141.501 C 202.867 140.313,203.133 140.000,202.850 140.000 C 202.789 140.000,202.164 140.625,201.462 141.389 M276.713 141.503 C 276.688 142.228,276.929 143.145,277.250 143.540 C 277.570 143.936,277.701 144.009,277.540 143.704 C 277.380 143.398,277.138 142.481,277.004 141.667 L 276.759 140.185 276.713 141.503 M195.179 147.315 L 191.296 151.296 195.278 147.414 C 197.468 145.279,199.259 143.487,199.259 143.433 C 199.259 143.165,198.785 143.617,195.179 147.315 M277.871 145.741 C 277.875 146.556,277.951 146.845,278.040 146.385 C 278.128 145.924,278.125 145.257,278.032 144.903 C 277.940 144.549,277.867 144.926,277.871 145.741 M187.954 154.537 L 185.000 157.593 188.056 154.638 C 190.893 151.894,191.280 151.481,191.010 151.481 C 190.954 151.481,189.579 152.856,187.954 154.537 M183.866 158.981 L 182.778 160.185 183.981 159.097 C 184.644 158.499,185.185 157.957,185.185 157.894 C 185.185 157.608,184.880 157.859,183.866 158.981 M176.995 167.315 C 175.816 168.619,175.052 169.630,175.247 169.630 C 175.330 169.630,176.026 168.880,176.792 167.963 C 178.321 166.133,178.458 165.697,176.995 167.315 M225.838 166.558 C 226.298 166.647,226.965 166.643,227.319 166.551 C 227.673 166.458,227.296 166.386,226.481 166.390 C 225.667 166.394,225.377 166.470,225.838 166.558 M282.323 169.259 C 282.323 170.176,282.395 170.551,282.484 170.093 C 282.572 169.634,282.572 168.884,282.484 168.426 C 282.395 167.968,282.323 168.343,282.323 169.259 M207.037 178.704 C 206.137 179.620,205.485 180.370,205.587 180.370 C 205.688 180.370,206.508 179.620,207.407 178.704 C 208.307 177.787,208.960 177.037,208.858 177.037 C 208.756 177.037,207.937 177.787,207.037 178.704 M284.189 179.815 C 284.191 181.037,284.260 181.492,284.342 180.827 C 284.425 180.161,284.423 179.161,284.339 178.604 C 284.254 178.048,284.187 178.593,284.189 179.815 M237.089 179.259 C 237.089 179.565,237.232 180.148,237.407 180.556 C 237.608 181.022,237.726 181.091,237.726 180.741 C 237.726 180.435,237.582 179.852,237.407 179.444 C 237.207 178.978,237.089 178.909,237.089 179.259 M204.743 181.389 C 204.091 182.149,203.601 182.963,203.797 182.963 C 203.873 182.963,204.304 182.463,204.756 181.852 C 205.649 180.644,205.641 180.344,204.743 181.389 M238.234 185.185 C 238.234 185.898,238.310 186.190,238.403 185.833 C 238.497 185.477,238.497 184.894,238.403 184.537 C 238.310 184.181,238.234 184.472,238.234 185.185 M284.948 190.741 C 284.948 192.676,285.011 193.468,285.087 192.500 C 285.163 191.532,285.163 189.949,285.087 188.981 C 285.011 188.014,284.948 188.806,284.948 190.741 M199.117 189.815 C 198.788 190.324,198.249 191.199,197.919 191.759 L 197.320 192.778 198.065 191.876 C 198.945 190.811,200.112 188.889,199.878 188.889 C 199.788 188.889,199.446 189.306,199.117 189.815 M238.982 195.370 C 238.986 196.185,239.062 196.475,239.151 196.014 C 239.239 195.553,239.236 194.887,239.143 194.533 C 239.051 194.179,238.978 194.556,238.982 195.370 M238.604 203.704 C 238.604 204.417,238.681 204.708,238.774 204.352 C 238.867 203.995,238.867 203.412,238.774 203.056 C 238.681 202.699,238.604 202.991,238.604 203.704 M286.390 206.111 C 286.394 206.926,286.470 207.216,286.558 206.755 C 286.647 206.294,286.643 205.628,286.551 205.273 C 286.458 204.919,286.386 205.296,286.390 206.111 M238.259 207.778 C 238.259 208.898,238.329 209.356,238.413 208.796 C 238.498 208.236,238.498 207.319,238.413 206.759 C 238.329 206.199,238.259 206.657,238.259 207.778 M189.319 208.349 C 188.699 209.711,188.817 210.002,189.488 208.764 C 189.802 208.185,189.989 207.643,189.904 207.558 C 189.819 207.474,189.556 207.829,189.319 208.349 M286.390 219.074 C 286.394 219.889,286.470 220.179,286.558 219.718 C 286.647 219.257,286.643 218.591,286.551 218.236 C 286.458 217.882,286.386 218.259,286.390 219.074 M236.382 221.852 C 236.382 222.565,236.458 222.856,236.552 222.500 C 236.645 222.144,236.645 221.560,236.552 221.204 C 236.458 220.847,236.382 221.139,236.382 221.852 M147.493 225.185 C 147.493 225.898,147.570 226.190,147.663 225.833 C 147.756 225.477,147.756 224.894,147.663 224.537 C 147.570 224.181,147.493 224.472,147.493 225.185 M180.456 231.111 C 180.456 231.824,180.533 232.116,180.626 231.759 C 180.719 231.403,180.719 230.819,180.626 230.463 C 180.533 230.106,180.456 230.398,180.456 231.111 M284.942 233.519 C 284.943 235.148,285.008 235.769,285.086 234.898 C 285.165 234.026,285.164 232.693,285.084 231.935 C 285.004 231.176,284.940 231.889,284.942 233.519 M176.904 242.300 C 176.779 242.767,176.691 243.481,176.709 243.889 C 176.727 244.296,176.894 243.979,177.080 243.185 C 177.441 241.646,177.287 240.871,176.904 242.300 M284.185 243.333 C 284.185 244.454,284.254 244.912,284.339 244.352 C 284.424 243.792,284.424 242.875,284.339 242.315 C 284.254 241.755,284.185 242.213,284.185 243.333 M142.693 244.815 C 142.693 245.731,142.766 246.106,142.854 245.648 C 142.942 245.190,142.942 244.440,142.854 243.981 C 142.766 243.523,142.693 243.898,142.693 244.815 M141.205 252.037 C 141.209 252.852,141.284 253.142,141.373 252.681 C 141.462 252.220,141.458 251.553,141.366 251.199 C 141.273 250.845,141.200 251.222,141.205 252.037 M174.175 252.963 C 174.175 253.880,174.247 254.255,174.335 253.796 C 174.424 253.338,174.424 252.588,174.335 252.130 C 174.247 251.671,174.175 252.046,174.175 252.963 M282.308 256.667 C 282.308 257.380,282.384 257.671,282.478 257.315 C 282.571 256.958,282.571 256.375,282.478 256.019 C 282.384 255.662,282.308 255.954,282.308 256.667 M140.234 257.811 C 140.105 258.455,140.019 259.419,140.043 259.954 C 140.067 260.488,140.236 260.025,140.419 258.925 C 140.775 256.779,140.623 255.865,140.234 257.811 M173.064 258.148 C 173.064 259.065,173.136 259.440,173.224 258.981 C 173.313 258.523,173.313 257.773,173.224 257.315 C 173.136 256.856,173.064 257.231,173.064 258.148 M139.353 265.741 C 139.357 266.556,139.433 266.845,139.521 266.385 C 139.610 265.924,139.606 265.257,139.514 264.903 C 139.421 264.549,139.349 264.926,139.353 265.741 M171.205 268.333 C 171.209 269.148,171.284 269.438,171.373 268.977 C 171.462 268.516,171.458 267.850,171.366 267.496 C 171.273 267.142,171.200 267.519,171.205 268.333 M170.471 276.296 C 170.471 277.213,170.543 277.588,170.632 277.130 C 170.720 276.671,170.720 275.921,170.632 275.463 C 170.543 275.005,170.471 275.380,170.471 276.296 M138.299 282.963 C 138.299 286.324,138.355 287.699,138.424 286.019 C 138.492 284.338,138.492 281.588,138.424 279.907 C 138.355 278.227,138.299 279.602,138.299 282.963 M277.815 278.333 C 277.780 278.944,277.513 279.861,277.222 280.370 C 276.931 280.880,276.706 281.713,276.723 282.222 C 276.746 282.953,276.786 282.992,276.912 282.407 C 277.000 282.000,277.329 281.065,277.643 280.330 C 277.957 279.595,278.138 278.595,278.046 278.108 C 277.901 277.339,277.870 277.369,277.815 278.333 M216.371 282.416 C 215.928 283.328,215.643 284.074,215.738 284.074 C 215.989 284.074,217.485 281.066,217.318 280.898 C 217.240 280.821,216.814 281.503,216.371 282.416 M169.716 284.444 C 169.716 285.157,169.792 285.449,169.885 285.093 C 169.978 284.736,169.978 284.153,169.885 283.796 C 169.792 283.440,169.716 283.731,169.716 284.444 M169.370 289.259 C 169.370 290.380,169.440 290.838,169.525 290.278 C 169.609 289.718,169.609 288.801,169.525 288.241 C 169.440 287.681,169.370 288.139,169.370 289.259 M169.716 294.074 C 169.716 294.787,169.792 295.079,169.885 294.722 C 169.978 294.366,169.978 293.782,169.885 293.426 C 169.792 293.069,169.716 293.361,169.716 294.074 M138.290 298.333 C 138.290 300.778,138.350 301.730,138.423 300.448 C 138.495 299.167,138.495 297.167,138.421 296.004 C 138.348 294.841,138.289 295.889,138.290 298.333 M170.767 303.519 C 170.767 303.722,171.005 304.306,171.296 304.815 C 171.587 305.324,171.826 305.574,171.826 305.370 C 171.826 305.167,171.587 304.583,171.296 304.074 C 171.005 303.565,170.767 303.315,170.767 303.519 M198.695 309.352 L 195.741 312.407 198.796 309.453 C 201.634 306.709,202.021 306.296,201.751 306.296 C 201.695 306.296,200.320 307.671,198.695 309.352 M140.086 315.556 C 140.086 316.269,140.162 316.560,140.255 316.204 C 140.348 315.847,140.348 315.264,140.255 314.907 C 140.162 314.551,140.086 314.843,140.086 315.556 M182.121 318.786 C 182.779 318.868,183.946 318.869,184.714 318.789 C 185.482 318.709,184.944 318.642,183.519 318.640 C 182.093 318.638,181.464 318.704,182.121 318.786 M261.278 319.664 C 260.953 320.294,260.752 320.875,260.832 320.956 C 260.913 321.036,261.256 320.521,261.594 319.810 C 262.356 318.213,262.092 318.091,261.278 319.664 M142.631 324.837 C 142.610 325.358,142.837 326.108,143.136 326.503 C 143.435 326.899,143.708 327.639,143.742 328.148 C 143.803 329.050,143.809 329.051,143.968 328.220 C 144.058 327.751,143.930 327.125,143.685 326.829 C 143.440 326.534,143.110 325.751,142.954 325.090 C 142.702 324.030,142.664 324.000,142.631 324.837 M250.933 334.722 C 250.138 335.690,249.871 336.148,250.339 335.741 C 251.167 335.021,252.776 332.963,252.511 332.963 C 252.438 332.963,251.728 333.755,250.933 334.722 M243.877 342.685 L 241.667 345.000 243.981 342.789 C 245.255 341.574,246.296 340.532,246.296 340.475 C 246.296 340.201,245.931 340.535,243.877 342.685 M154.259 347.407 C 155.262 348.426,156.167 349.259,156.268 349.259 C 156.370 349.259,155.633 348.426,154.630 347.407 C 153.626 346.389,152.722 345.556,152.620 345.556 C 152.519 345.556,153.256 346.389,154.259 347.407 M157.778 351.296 C 158.469 352.009,159.118 352.593,159.219 352.593 C 159.321 352.593,158.839 352.009,158.148 351.296 C 157.457 350.583,156.808 350.000,156.707 350.000 C 156.605 350.000,157.087 350.583,157.778 351.296 M226.944 354.470 C 226.181 354.873,225.556 355.286,225.556 355.387 C 225.556 355.488,226.222 355.231,227.037 354.815 C 227.852 354.399,228.519 353.979,228.519 353.881 C 228.519 353.639,228.516 353.640,226.944 354.470 M207.778 361.852 C 206.496 362.122,206.494 362.125,207.593 362.168 C 208.204 362.191,208.954 362.049,209.259 361.852 C 209.876 361.453,209.671 361.453,207.778 361.852 M182.134 363.225 C 182.595 363.314,183.261 363.310,183.615 363.217 C 183.970 363.125,183.593 363.052,182.778 363.056 C 181.963 363.060,181.673 363.136,182.134 363.225 " stroke="none" fill="#fccc94" fill-rule="evenodd"></path><path id="path3" d="M236.852 86.321 C 230.826 87.116,223.157 92.678,219.028 99.249 C 218.238 100.505,216.793 102.638,215.815 103.989 C 213.244 107.544,208.362 118.115,208.997 118.750 C 209.100 118.853,209.474 118.051,209.829 116.968 C 213.791 104.874,223.303 92.536,232.004 88.205 C 239.911 84.269,252.155 88.361,257.072 96.583 C 257.526 97.342,258.189 98.296,258.544 98.704 C 258.900 99.111,259.557 100.154,260.004 101.020 C 260.451 101.887,260.969 102.690,261.153 102.804 C 261.338 102.918,262.168 104.250,262.999 105.763 C 263.830 107.277,264.661 108.609,264.847 108.724 C 265.033 108.839,265.185 109.193,265.185 109.512 C 265.185 110.057,267.334 115.243,268.221 116.840 C 268.444 117.241,268.754 117.991,268.911 118.507 C 269.112 119.169,269.205 119.243,269.227 118.761 C 269.245 118.385,269.016 117.635,268.720 117.094 C 268.423 116.553,267.579 114.611,266.844 112.778 C 266.109 110.944,265.277 109.028,264.994 108.519 C 264.712 108.009,264.118 106.926,263.675 106.111 C 255.776 91.576,246.864 85.001,236.852 86.321 M208.370 119.853 C 208.238 120.198,208.057 121.747,207.969 123.295 L 207.809 126.111 208.296 122.778 C 208.789 119.405,208.806 118.716,208.370 119.853 M269.271 119.862 C 269.295 120.519,270.370 121.673,270.370 121.042 C 270.370 120.723,270.120 120.254,269.815 120.000 C 269.509 119.746,269.265 119.684,269.271 119.862 M270.398 122.222 C 270.396 122.528,270.639 123.101,270.938 123.497 C 271.237 123.892,271.481 124.536,271.481 124.927 C 271.481 125.728,274.491 134.892,274.689 134.694 C 274.856 134.527,273.081 128.678,272.390 127.117 C 272.094 126.448,271.845 125.531,271.836 125.080 C 271.819 124.161,270.404 121.350,270.398 122.222 M207.407 132.774 L 207.407 137.029 205.093 138.689 C 199.491 142.708,185.685 156.764,178.885 165.370 C 176.632 168.222,174.483 170.920,174.110 171.365 C 173.737 171.811,172.965 172.977,172.395 173.958 C 171.826 174.938,170.582 176.907,169.632 178.333 C 165.363 184.738,159.517 195.042,158.085 198.685 C 157.680 199.714,157.134 200.806,156.871 201.111 C 156.608 201.417,156.309 202.083,156.207 202.593 C 156.105 203.102,155.888 203.838,155.725 204.227 C 155.517 204.728,155.557 204.858,155.862 204.669 C 156.100 204.522,156.400 203.741,156.529 202.934 C 156.658 202.126,156.904 201.378,157.075 201.273 C 157.246 201.167,158.372 199.021,159.576 196.504 C 161.767 191.924,166.065 184.466,169.963 178.482 C 171.104 176.730,172.497 174.564,173.059 173.667 C 174.476 171.408,176.812 168.266,178.246 166.692 C 178.908 165.965,180.357 164.204,181.465 162.778 C 186.712 156.026,201.090 141.760,205.833 138.599 L 207.778 137.303 207.778 132.911 C 207.778 130.495,207.694 128.519,207.593 128.519 C 207.491 128.519,207.407 130.433,207.407 132.774 M275.067 136.667 C 275.188 137.583,275.443 138.533,275.635 138.777 C 275.827 139.021,276.123 140.104,276.292 141.184 C 276.679 143.656,277.743 146.575,277.750 145.185 C 277.752 144.676,277.510 143.936,277.210 143.540 C 276.911 143.145,276.667 142.135,276.667 141.296 C 276.667 140.457,276.422 139.448,276.123 139.052 C 275.824 138.657,275.562 137.917,275.541 137.407 C 275.521 136.898,275.356 136.148,275.176 135.741 C 274.956 135.246,274.920 135.553,275.067 136.667 M277.802 147.593 C 277.801 148.000,278.046 148.657,278.345 149.052 C 278.644 149.448,278.889 150.271,278.889 150.882 C 278.889 151.958,279.271 154.338,279.995 157.778 L 280.347 159.444 280.159 157.593 C 279.614 152.204,277.803 144.521,277.802 147.593 M280.611 160.556 C 281.098 162.717,281.490 163.612,281.260 162.037 C 281.141 161.222,280.890 160.306,280.702 160.000 C 280.473 159.628,280.443 159.812,280.611 160.556 M281.564 165.185 C 281.559 165.898,281.681 167.398,281.836 168.519 L 282.118 170.556 282.143 168.889 C 282.156 167.972,282.034 166.472,281.871 165.556 C 281.599 164.028,281.573 163.997,281.564 165.185 M221.117 166.688 C 220.407 167.084,220.074 167.402,220.376 167.394 C 220.679 167.387,221.343 167.143,221.852 166.852 C 225.446 164.797,230.990 167.100,234.308 172.027 C 234.994 173.046,235.556 173.743,235.556 173.576 C 235.556 173.090,233.078 169.495,232.148 168.632 C 229.288 165.978,224.047 165.054,221.117 166.688 M217.407 168.416 C 213.878 170.394,202.252 183.209,200.369 187.197 C 200.266 187.415,199.562 188.536,198.804 189.689 C 195.205 195.168,183.898 218.466,184.532 219.100 C 184.597 219.165,185.633 216.936,186.833 214.146 C 193.856 197.830,201.778 184.282,208.317 177.407 C 213.545 171.911,215.983 169.690,217.656 168.901 C 218.506 168.500,219.307 168.000,219.437 167.790 C 219.792 167.215,219.252 167.382,217.407 168.416 M282.463 172.593 C 282.585 173.713,282.847 175.046,283.046 175.556 C 283.483 176.674,283.981 181.770,284.460 190.000 C 284.887 197.354,285.306 201.726,285.613 202.032 C 285.858 202.277,285.723 200.383,285.168 195.774 C 284.974 194.163,284.815 191.515,284.815 189.890 C 284.815 184.252,283.796 176.033,282.557 171.667 C 282.336 170.891,282.308 171.171,282.463 172.593 M235.748 174.630 C 237.084 178.622,237.742 180.924,238.125 182.946 C 238.658 185.755,239.275 195.312,239.067 197.533 C 238.988 198.380,238.830 201.157,238.717 203.704 C 238.604 206.250,238.354 209.500,238.163 210.926 C 237.166 218.341,236.562 222.285,236.070 224.584 C 235.771 225.984,235.607 227.212,235.708 227.313 C 235.808 227.413,235.972 227.100,236.072 226.618 C 240.592 204.834,240.525 181.716,235.920 174.544 C 235.539 173.951,235.523 173.959,235.748 174.630 M286.111 212.222 C 286.111 217.417,286.218 220.667,286.349 219.444 C 286.649 216.631,286.646 208.764,286.343 205.370 C 286.215 203.944,286.111 207.028,286.111 212.222 M154.453 207.285 C 154.010 208.468,153.491 209.624,153.300 209.855 C 152.875 210.367,151.060 215.628,151.244 215.812 C 151.317 215.884,151.739 214.898,152.182 213.620 C 152.626 212.342,153.313 210.630,153.710 209.815 C 154.771 207.636,155.587 205.464,155.411 205.288 C 155.327 205.203,154.895 206.102,154.453 207.285 M149.867 218.534 C 149.329 219.774,148.889 221.163,148.889 221.620 C 148.889 222.077,148.644 222.775,148.345 223.170 C 148.046 223.565,147.795 224.389,147.787 225.000 C 147.780 225.611,147.521 226.594,147.213 227.184 C 146.906 227.775,146.392 229.442,146.071 230.888 C 145.751 232.335,145.335 234.185,145.148 235.000 C 144.960 235.815,144.641 237.533,144.439 238.818 C 144.236 240.102,143.812 241.655,143.495 242.269 C 143.177 242.882,142.989 243.747,143.075 244.192 C 143.207 244.869,143.241 244.839,143.283 244.003 C 143.311 243.455,143.489 242.911,143.679 242.793 C 143.868 242.676,144.203 241.708,144.421 240.642 C 144.996 237.835,145.913 233.486,146.469 230.926 C 146.735 229.704,147.221 228.084,147.550 227.327 C 147.879 226.569,148.148 225.617,148.148 225.210 C 148.148 224.803,148.382 223.922,148.668 223.253 C 148.954 222.584,149.400 221.287,149.660 220.370 C 149.919 219.454,150.364 218.230,150.649 217.651 C 150.933 217.072,151.094 216.526,151.006 216.438 C 150.918 216.350,150.405 217.293,149.867 218.534 M183.398 221.418 C 182.955 222.398,182.593 223.465,182.593 223.789 C 182.593 224.114,182.009 225.742,181.296 227.407 C 180.583 229.073,179.995 230.880,179.988 231.422 C 179.982 231.964,179.732 232.731,179.433 233.126 C 179.134 233.522,178.912 234.272,178.939 234.793 L 178.990 235.741 179.161 234.825 C 179.255 234.322,179.566 233.576,179.851 233.169 C 180.137 232.761,180.370 232.005,180.370 231.488 C 180.370 230.971,180.952 229.216,181.662 227.589 C 182.373 225.961,182.956 224.359,182.958 224.029 C 182.961 223.698,183.310 222.642,183.735 221.683 C 184.159 220.723,184.438 219.870,184.355 219.787 C 184.272 219.704,183.841 220.438,183.398 221.418 M285.414 223.392 C 284.663 229.531,284.444 232.080,284.444 234.697 C 284.444 236.336,284.295 238.491,284.113 239.486 C 283.931 240.482,283.693 242.963,283.584 245.000 C 283.403 248.399,283.415 248.490,283.726 246.111 C 284.662 238.956,284.816 237.394,284.816 235.000 C 284.816 233.574,285.061 230.083,285.361 227.243 C 285.660 224.402,285.839 222.012,285.758 221.931 C 285.677 221.850,285.523 222.508,285.414 223.392 M235.064 229.586 C 234.947 230.174,234.749 231.132,234.624 231.716 C 234.465 232.464,234.502 232.613,234.750 232.222 C 235.138 231.609,235.722 228.519,235.449 228.519 C 235.355 228.519,235.182 228.999,235.064 229.586 M232.990 238.234 C 232.294 241.141,231.329 244.663,230.845 246.062 C 230.360 247.462,230.031 248.673,230.113 248.755 C 230.299 248.941,231.986 243.897,232.732 240.926 C 233.039 239.704,233.569 237.597,233.911 236.244 C 234.253 234.891,234.470 233.596,234.394 233.367 C 234.318 233.138,233.686 235.328,232.990 238.234 M178.007 237.182 C 177.672 237.887,177.217 239.351,176.995 240.436 C 176.773 241.520,176.465 243.029,176.310 243.790 C 176.155 244.550,175.861 245.383,175.658 245.641 C 175.454 245.900,175.184 246.906,175.057 247.877 C 174.931 248.848,174.574 250.131,174.265 250.729 C 173.956 251.326,173.704 252.412,173.704 253.142 C 173.704 253.871,173.454 255.067,173.148 255.798 C 172.843 256.529,172.593 257.768,172.593 258.551 C 172.593 259.334,172.356 260.688,172.067 261.561 C 169.218 270.162,168.282 297.646,170.626 303.889 C 170.932 304.704,171.303 306.160,171.450 307.124 C 171.597 308.089,171.832 308.992,171.972 309.132 C 172.373 309.534,171.797 305.841,171.297 304.815 C 170.089 302.333,169.121 290.678,169.637 284.834 C 171.126 267.975,171.611 263.979,172.442 261.752 C 172.729 260.984,172.963 259.629,172.963 258.741 C 172.963 257.854,173.213 256.529,173.519 255.798 C 173.824 255.067,174.074 253.833,174.074 253.057 C 174.074 252.281,174.326 251.287,174.633 250.848 C 174.941 250.409,175.288 249.247,175.406 248.265 C 175.523 247.284,175.841 245.981,176.113 245.370 C 176.386 244.759,176.800 243.259,177.034 242.037 C 177.269 240.815,177.780 238.994,178.171 237.990 C 179.000 235.858,178.891 235.319,178.007 237.182 M142.158 248.568 C 141.817 249.865,141.103 254.176,140.570 258.148 C 140.038 262.120,139.442 266.390,139.246 267.635 C 139.049 268.881,138.915 271.214,138.947 272.820 L 139.005 275.741 139.288 272.037 C 139.599 267.963,140.026 264.421,140.918 258.519 C 141.242 256.380,141.642 253.459,141.807 252.027 C 141.972 250.596,142.311 249.046,142.559 248.582 C 142.807 248.119,142.957 247.396,142.894 246.975 C 142.828 246.544,142.507 247.240,142.158 248.568 M282.817 250.055 C 282.407 252.685,282.161 255.731,282.375 255.522 C 282.670 255.233,283.420 249.222,283.189 248.992 C 283.091 248.893,282.924 249.372,282.817 250.055 M227.829 255.306 C 225.397 262.656,222.435 270.223,219.686 276.110 C 216.827 282.229,211.511 292.619,210.779 293.519 C 210.447 293.926,209.876 294.843,209.511 295.556 C 209.001 296.549,208.984 296.679,209.437 296.111 C 212.630 292.111,221.558 273.697,226.048 261.852 C 227.318 258.503,230.111 249.617,229.946 249.452 C 229.872 249.378,228.919 252.012,227.829 255.306 M281.679 258.346 C 281.535 259.695,281.500 260.882,281.601 260.984 C 281.703 261.086,281.905 260.065,282.049 258.716 C 282.194 257.367,282.229 256.179,282.127 256.078 C 282.025 255.976,281.824 256.996,281.679 258.346 M281.048 262.593 C 280.931 263.102,280.721 263.852,280.580 264.259 C 280.439 264.667,280.594 264.532,280.925 263.960 C 281.257 263.388,281.467 262.638,281.394 262.293 C 281.298 261.846,281.199 261.932,281.048 262.593 M279.835 266.910 C 279.714 267.897,279.451 269.508,279.252 270.491 C 279.052 271.474,278.889 272.734,278.889 273.291 C 278.889 273.847,278.644 274.626,278.345 275.022 C 278.046 275.417,277.803 276.157,277.806 276.667 C 277.809 277.420,277.918 277.316,278.385 276.111 C 279.180 274.061,280.590 265.652,280.203 265.265 C 280.122 265.184,279.956 265.924,279.835 266.910 M138.664 280.741 C 138.664 283.491,138.722 284.616,138.793 283.241 C 138.864 281.866,138.864 279.616,138.793 278.241 C 138.722 276.866,138.664 277.991,138.664 280.741 M277.105 279.514 C 276.836 280.290,276.479 281.593,276.311 282.407 C 276.143 283.222,275.821 284.431,275.595 285.093 C 274.588 288.051,274.358 288.791,274.029 290.141 C 273.836 290.931,273.434 291.926,273.135 292.353 C 272.837 292.779,272.593 293.570,272.593 294.111 C 272.593 294.652,272.343 295.302,272.037 295.556 C 271.731 295.809,271.481 296.429,271.481 296.933 C 271.481 297.436,271.241 298.291,270.947 298.832 C 270.011 300.555,267.778 306.120,267.778 306.729 C 267.778 307.052,267.544 307.510,267.259 307.747 C 266.974 307.984,266.359 309.129,265.892 310.292 C 265.425 311.456,264.575 313.176,264.003 314.115 C 263.431 315.054,262.963 316.075,262.963 316.385 C 262.963 316.694,262.699 317.165,262.377 317.432 C 262.055 317.700,261.318 318.845,260.740 319.978 C 260.162 321.110,259.259 322.611,258.733 323.313 C 258.208 324.014,257.778 324.743,257.778 324.932 C 257.778 326.277,244.860 341.572,241.299 344.444 C 237.254 347.706,236.683 348.272,238.889 346.833 C 242.957 344.178,258.148 327.080,258.148 325.156 C 258.148 324.969,258.711 324.024,259.400 323.056 C 260.088 322.088,260.761 320.936,260.896 320.495 C 261.030 320.055,261.634 319.074,262.237 318.315 C 262.840 317.556,263.333 316.663,263.333 316.331 C 263.333 315.999,263.735 315.137,264.225 314.415 C 264.716 313.693,265.566 312.029,266.114 310.718 C 266.662 309.406,267.344 308.070,267.629 307.749 C 267.915 307.427,268.148 306.904,268.148 306.586 C 268.148 306.070,268.691 304.754,271.136 299.342 C 271.530 298.471,271.852 297.366,271.852 296.887 C 271.852 296.408,272.102 295.809,272.407 295.556 C 272.713 295.302,272.963 294.698,272.963 294.213 C 272.963 293.728,273.296 292.709,273.704 291.949 C 274.111 291.188,274.450 290.231,274.458 289.820 C 274.465 289.410,274.709 288.657,275.000 288.148 C 275.291 287.639,275.535 286.866,275.542 286.431 C 275.550 285.996,275.805 285.163,276.109 284.579 C 276.413 283.996,276.663 283.052,276.664 282.482 C 276.666 281.911,276.927 280.942,277.245 280.327 C 277.562 279.712,277.771 278.960,277.708 278.655 C 277.644 278.351,277.373 278.737,277.105 279.514 M138.273 291.481 C 138.273 293.009,138.338 293.634,138.418 292.870 C 138.498 292.106,138.498 290.856,138.418 290.093 C 138.338 289.329,138.273 289.954,138.273 291.481 M138.730 301.977 C 138.820 304.999,139.049 308.166,139.238 309.014 C 139.426 309.862,139.774 311.889,140.010 313.519 C 140.246 315.148,140.674 317.110,140.961 317.878 C 141.247 318.646,141.487 319.729,141.494 320.285 C 141.501 320.841,141.829 321.963,142.222 322.778 C 142.616 323.593,142.938 324.009,142.937 323.704 C 142.937 323.398,142.699 322.731,142.407 322.222 C 142.116 321.713,141.872 320.802,141.865 320.198 C 141.858 319.593,141.619 318.427,141.334 317.605 C 141.050 316.783,140.627 314.944,140.395 313.519 C 140.162 312.093,139.804 310.009,139.598 308.889 C 139.393 307.769,139.076 304.519,138.895 301.667 L 138.565 296.481 138.730 301.977 M207.583 298.611 C 203.822 304.340,196.534 312.384,192.101 315.700 C 191.118 316.435,190.478 317.037,190.679 317.037 C 192.767 317.037,204.264 304.759,208.107 298.426 C 209.260 296.525,208.860 296.667,207.583 298.611 M172.240 309.667 C 172.198 310.195,173.062 312.222,173.329 312.222 C 173.491 312.222,173.719 312.602,173.835 313.065 C 174.132 314.249,176.347 316.723,177.829 317.527 L 179.074 318.202 178.148 317.409 C 175.758 315.363,174.669 314.197,174.181 313.162 C 173.324 311.344,172.259 309.427,172.240 309.667 M186.852 318.519 C 185.827 318.779,185.812 318.804,186.667 318.839 C 187.176 318.860,187.843 318.716,188.148 318.519 C 188.778 318.111,188.453 318.111,186.852 318.519 M142.965 325.207 C 142.964 325.525,143.208 326.108,143.507 326.503 C 143.806 326.899,144.056 327.675,144.062 328.228 C 144.076 329.358,144.462 330.301,147.290 336.111 C 150.236 342.164,151.035 343.397,154.657 347.482 C 159.699 353.169,165.756 357.922,169.444 359.087 C 169.852 359.215,169.185 358.760,167.963 358.074 C 159.083 353.094,151.150 344.333,147.239 335.185 C 146.847 334.269,146.355 333.291,146.145 333.013 C 145.598 332.286,144.797 330.056,144.464 328.333 C 144.155 326.733,142.969 324.259,142.965 325.207 M233.481 350.306 C 231.658 351.627,231.348 351.798,224.425 355.309 C 221.278 356.905,219.120 358.099,219.630 357.963 C 220.741 357.666,229.211 353.451,230.000 352.802 C 230.306 352.550,231.056 352.141,231.667 351.892 C 232.690 351.476,235.610 349.259,235.134 349.259 C 235.020 349.259,234.276 349.730,233.481 350.306 M170.574 359.588 C 170.768 359.769,171.343 360.026,171.852 360.159 L 172.778 360.401 171.852 359.843 C 170.820 359.222,170.008 359.059,170.574 359.588 M213.911 359.827 C 212.996 360.518,213.598 360.511,214.815 359.815 C 215.352 359.508,215.507 359.285,215.185 359.284 C 214.880 359.283,214.306 359.528,213.911 359.827 M175.893 361.496 C 177.606 362.099,179.439 362.570,179.967 362.542 L 180.926 362.492 180.000 362.333 C 179.491 362.245,177.879 361.768,176.419 361.272 C 174.959 360.776,173.542 360.377,173.271 360.385 C 173.000 360.394,174.179 360.894,175.893 361.496 M209.815 360.824 C 208.957 361.322,206.816 361.759,203.148 362.184 C 200.699 362.467,200.658 362.487,202.407 362.538 C 204.183 362.590,209.344 361.702,210.145 361.206 C 210.357 361.076,211.119 360.853,211.839 360.712 L 213.148 360.456 211.852 360.424 C 211.139 360.407,210.222 360.587,209.815 360.824 M184.259 363.147 C 185.202 363.465,188.206 363.597,187.735 363.299 C 187.453 363.120,186.472 362.985,185.556 362.998 C 184.639 363.011,184.056 363.078,184.259 363.147 M195.926 363.353 C 195.528 363.624,195.790 363.661,196.852 363.483 C 198.689 363.175,198.985 362.961,197.562 362.969 C 196.968 362.972,196.231 363.145,195.926 363.353 M191.204 364.329 C 191.560 364.423,192.144 364.423,192.500 364.329 C 192.856 364.236,192.565 364.160,191.852 364.160 C 191.139 364.160,190.847 364.236,191.204 364.329 " stroke="none" fill="#fcbc6f" fill-rule="evenodd"></path><path id="path4" d="M234.630 86.074 C 233.063 86.569,230.741 87.691,230.741 87.952 C 230.741 88.038,231.699 87.671,232.870 87.138 C 236.647 85.420,247.778 85.869,247.778 87.740 C 247.778 87.889,248.403 88.308,249.167 88.670 C 250.793 89.443,250.699 89.293,248.713 87.945 C 245.456 85.735,238.586 84.822,234.630 86.074 M227.531 89.637 C 225.073 91.243,219.882 96.511,218.744 98.556 C 217.887 100.095,218.256 99.722,220.353 96.931 C 222.340 94.285,225.413 91.437,228.298 89.566 C 229.501 88.786,230.333 88.148,230.147 88.148 C 229.961 88.148,228.784 88.818,227.531 89.637 M254.074 92.598 C 256.009 94.530,257.666 96.065,257.757 96.009 C 257.991 95.863,253.799 91.646,252.037 90.255 C 251.222 89.611,252.139 90.666,254.074 92.598 M260.253 100.261 C 261.626 102.340,262.820 103.970,262.908 103.883 C 262.995 103.795,262.651 103.178,262.144 102.510 C 261.636 101.842,260.951 100.796,260.621 100.185 C 260.291 99.574,259.511 98.491,258.889 97.778 C 258.267 97.065,258.881 98.182,260.253 100.261 M216.409 102.050 C 214.408 104.961,212.221 108.635,212.229 109.072 C 212.233 109.277,212.698 108.606,213.263 107.582 C 213.828 106.557,215.049 104.641,215.977 103.323 C 217.926 100.553,218.263 100.000,218.005 100.000 C 217.902 100.000,217.183 100.922,216.409 102.050 M263.355 105.379 C 263.343 105.587,263.818 106.345,264.410 107.064 C 265.002 107.782,265.674 109.028,265.902 109.833 C 266.314 111.287,267.733 114.156,267.762 113.596 C 267.771 113.435,267.444 112.650,267.037 111.852 C 266.630 111.053,266.296 110.083,266.296 109.695 C 266.296 109.308,265.838 108.402,265.278 107.683 C 264.718 106.963,264.061 106.065,263.818 105.687 C 263.575 105.309,263.367 105.170,263.355 105.379 M210.693 112.071 C 207.741 118.554,207.319 120.562,207.120 129.074 L 206.938 136.852 204.828 138.245 C 200.612 141.027,184.341 157.264,180.081 162.940 C 178.925 164.480,177.386 166.407,176.661 167.222 C 175.936 168.037,174.932 169.328,174.431 170.090 C 173.929 170.853,173.389 171.478,173.232 171.479 C 173.074 171.480,172.799 171.864,172.621 172.333 C 172.443 172.801,171.227 174.842,169.919 176.870 C 168.610 178.897,167.414 180.806,167.261 181.111 C 166.618 182.392,168.379 179.907,170.806 176.111 C 178.326 164.344,196.421 144.413,204.751 138.721 L 207.318 136.967 207.488 129.132 C 207.674 120.602,208.170 118.277,211.125 112.072 C 211.709 110.845,212.113 109.768,212.023 109.677 C 211.932 109.587,211.334 110.664,210.693 112.071 M268.014 115.000 C 268.340 116.394,269.626 118.571,269.628 117.731 C 269.629 117.399,269.380 116.920,269.074 116.667 C 268.769 116.413,268.516 115.934,268.513 115.603 C 268.510 115.271,268.338 114.750,268.131 114.444 C 267.858 114.041,267.826 114.192,268.014 115.000 M270.135 120.185 C 271.368 122.843,271.820 123.935,271.973 124.630 C 272.101 125.212,272.145 125.168,272.179 124.423 C 272.203 123.901,271.978 123.151,271.678 122.756 C 271.379 122.361,271.129 121.764,271.123 121.430 C 271.116 121.096,270.775 120.429,270.365 119.948 L 269.619 119.074 270.135 120.185 M272.247 125.926 C 272.248 126.231,272.500 126.898,272.806 127.407 L 273.364 128.333 273.119 127.407 C 272.763 126.063,272.244 125.183,272.247 125.926 M273.365 129.259 C 273.376 129.565,273.529 130.148,273.704 130.556 L 274.022 131.296 274.042 130.556 C 274.054 130.148,273.901 129.565,273.704 129.259 C 273.385 128.765,273.347 128.765,273.365 129.259 M275.444 136.316 C 275.559 137.222,275.880 138.225,276.158 138.546 C 276.436 138.866,276.770 139.949,276.901 140.953 C 277.032 141.957,277.317 143.111,277.533 143.519 C 277.749 143.926,278.042 145.093,278.184 146.111 C 278.468 148.144,279.595 151.388,279.600 150.185 C 279.602 149.778,279.365 149.028,279.074 148.519 C 278.783 148.009,278.533 146.926,278.519 146.111 C 278.504 145.296,278.254 144.213,277.963 143.704 C 277.672 143.194,277.428 142.192,277.421 141.476 C 277.413 140.760,277.074 139.552,276.667 138.792 C 276.259 138.032,275.923 137.034,275.920 136.575 C 275.917 136.116,275.762 135.499,275.575 135.204 C 275.356 134.857,275.309 135.249,275.444 136.316 M280.081 155.556 C 280.077 156.065,280.207 156.898,280.370 157.407 C 280.769 158.652,280.769 157.307,280.370 155.741 C 280.116 154.743,280.087 154.724,280.081 155.556 M280.799 159.444 C 280.798 159.648,281.022 160.398,281.296 161.111 C 281.571 161.824,281.801 162.157,281.807 161.852 C 281.813 161.546,281.589 160.796,281.310 160.185 C 281.030 159.574,280.800 159.241,280.799 159.444 M282.023 164.259 C 282.243 167.468,283.062 173.728,283.238 173.552 C 283.417 173.373,282.757 167.368,282.217 164.259 L 281.895 162.407 282.023 164.259 M221.481 167.222 C 220.844 167.586,220.744 167.756,221.158 167.765 C 221.490 167.772,221.969 167.528,222.222 167.222 C 222.786 166.543,222.670 166.543,221.481 167.222 M217.997 168.789 C 214.756 170.411,205.775 180.013,201.504 186.423 C 200.315 188.208,201.929 186.272,204.235 183.148 C 207.563 178.639,215.802 170.314,217.923 169.317 C 218.830 168.891,219.678 168.370,219.808 168.160 C 219.937 167.950,219.992 167.801,219.929 167.829 C 219.866 167.856,218.997 168.289,217.997 168.789 M231.536 169.452 C 234.562 172.695,236.320 176.730,237.590 183.342 C 238.119 186.094,238.121 186.097,237.927 183.889 C 237.399 177.859,234.538 171.604,230.900 168.526 C 230.303 168.020,230.589 168.437,231.536 169.452 M283.574 175.000 C 284.061 177.161,284.453 178.056,284.223 176.481 C 284.104 175.667,283.853 174.750,283.665 174.444 C 283.436 174.073,283.406 174.256,283.574 175.000 M284.700 183.889 C 284.812 185.722,284.967 187.292,285.045 187.377 C 285.303 187.660,285.135 183.911,284.813 182.222 C 284.585 181.022,284.553 181.488,284.700 183.889 M165.274 184.167 C 163.477 187.015,161.012 191.481,161.236 191.481 C 161.326 191.481,162.444 189.690,163.719 187.500 C 164.995 185.310,166.282 183.144,166.580 182.685 C 166.878 182.227,167.035 181.852,166.928 181.852 C 166.821 181.852,166.076 182.894,165.274 184.167 M238.333 196.158 C 238.333 201.632,238.442 205.194,238.574 204.074 C 238.899 201.331,238.910 189.432,238.590 187.639 C 238.449 186.850,238.333 190.684,238.333 196.158 M199.029 190.494 C 197.053 193.645,195.958 195.636,196.551 195.000 C 197.182 194.323,201.196 187.739,201.060 187.603 C 200.986 187.530,200.072 188.831,199.029 190.494 M159.283 194.768 C 157.258 198.795,157.381 199.130,159.443 195.204 C 160.347 193.482,161.019 192.007,160.937 191.925 C 160.855 191.842,160.110 193.122,159.283 194.768 M285.291 193.889 C 285.294 194.907,285.366 195.280,285.451 194.717 C 285.536 194.154,285.534 193.321,285.446 192.865 C 285.358 192.410,285.288 192.870,285.291 193.889 M192.975 201.493 C 191.923 203.565,191.130 205.328,191.214 205.411 C 191.297 205.495,192.224 203.866,193.274 201.792 C 194.323 199.718,195.116 197.955,195.035 197.874 C 194.954 197.794,194.027 199.422,192.975 201.493 M157.193 199.429 C 157.067 199.930,156.731 200.534,156.445 200.771 C 156.160 201.008,155.945 201.556,155.969 201.990 C 156.010 202.738,156.021 202.740,156.192 202.037 C 156.292 201.630,156.586 201.046,156.846 200.741 C 157.378 200.117,157.938 198.519,157.625 198.519 C 157.513 198.519,157.319 198.928,157.193 199.429 M285.582 199.660 C 285.596 200.153,285.759 200.889,285.943 201.296 C 286.177 201.813,286.210 201.588,286.053 200.556 C 285.791 198.836,285.544 198.366,285.582 199.660 M286.382 203.704 C 286.382 204.417,286.458 204.708,286.552 204.352 C 286.645 203.995,286.645 203.412,286.552 203.056 C 286.458 202.699,286.382 202.991,286.382 203.704 M155.245 203.905 C 154.625 205.267,154.743 205.557,155.414 204.319 C 155.728 203.741,155.915 203.199,155.830 203.114 C 155.745 203.029,155.482 203.385,155.245 203.905 M153.266 208.431 C 151.807 211.614,150.952 214.038,151.200 214.286 C 151.290 214.376,151.666 213.446,152.038 212.220 C 152.409 210.994,152.936 209.806,153.208 209.580 C 153.481 209.354,153.704 208.931,153.704 208.640 C 153.704 208.349,153.966 207.604,154.287 206.984 C 154.607 206.364,154.804 205.792,154.724 205.712 C 154.644 205.632,153.988 206.855,153.266 208.431 M190.383 206.642 C 189.914 207.519,189.892 207.888,190.326 207.620 C 190.652 207.418,191.162 205.926,190.904 205.926 C 190.829 205.926,190.594 206.248,190.383 206.642 M286.820 212.593 C 286.820 216.361,286.875 217.903,286.943 216.019 C 287.010 214.134,287.010 211.051,286.943 209.167 C 286.875 207.282,286.820 208.824,286.820 212.593 M237.613 209.907 C 237.474 211.690,237.038 215.120,236.643 217.529 C 236.249 219.938,235.940 222.272,235.958 222.714 C 235.976 223.157,236.379 221.282,236.854 218.549 C 237.708 213.637,238.410 206.667,238.051 206.667 C 237.949 206.667,237.752 208.125,237.613 209.907 M187.993 212.067 C 187.025 214.223,186.308 216.061,186.400 216.153 C 186.491 216.244,186.944 215.439,187.406 214.363 C 187.868 213.287,188.652 211.517,189.150 210.428 C 189.647 209.339,189.986 208.381,189.903 208.298 C 189.820 208.215,188.961 209.911,187.993 212.067 M150.432 215.907 C 150.216 216.529,150.117 217.037,150.214 217.037 C 150.464 217.037,151.163 215.113,150.979 214.930 C 150.895 214.846,150.649 215.286,150.432 215.907 M185.436 217.863 C 184.465 220.186,184.416 220.961,185.369 218.924 C 185.884 217.823,186.229 216.847,186.137 216.754 C 186.045 216.662,185.729 217.161,185.436 217.863 M149.120 218.881 C 148.789 219.708,148.519 220.639,148.519 220.948 C 148.519 221.258,148.185 222.164,147.778 222.963 C 147.370 223.762,147.031 224.880,147.024 225.448 C 147.017 226.017,146.773 226.898,146.481 227.407 C 146.190 227.917,145.963 228.750,145.977 229.259 C 145.999 230.098,146.027 230.080,146.270 229.074 C 146.417 228.463,146.734 227.599,146.973 227.154 C 147.212 226.709,147.407 225.922,147.407 225.405 C 147.407 224.887,147.718 223.751,148.098 222.880 C 148.949 220.927,150.008 217.662,149.844 217.498 C 149.777 217.431,149.451 218.054,149.120 218.881 M183.764 222.053 C 183.143 223.415,183.262 223.705,183.933 222.467 C 184.246 221.889,184.433 221.347,184.348 221.262 C 184.264 221.177,184.001 221.533,183.764 222.053 M285.786 223.533 C 285.659 223.864,285.573 224.496,285.593 224.938 C 285.617 225.445,285.743 225.265,285.935 224.447 C 286.259 223.071,286.171 222.531,285.786 223.533 M183.013 224.360 C 182.986 224.823,182.463 226.304,181.852 227.652 C 181.241 229.000,180.748 230.371,180.757 230.699 C 180.766 231.028,180.994 230.713,181.264 230.000 C 181.534 229.287,182.120 227.905,182.568 226.930 C 183.015 225.954,183.310 224.787,183.222 224.337 L 183.064 223.519 183.013 224.360 M235.029 226.944 C 234.459 230.255,234.428 230.585,234.762 229.815 C 235.141 228.940,235.675 225.556,235.434 225.556 C 235.343 225.556,235.160 226.181,235.029 226.944 M285.296 231.111 C 285.296 232.231,285.366 232.690,285.450 232.130 C 285.535 231.569,285.535 230.653,285.450 230.093 C 285.366 229.532,285.296 229.991,285.296 231.111 M233.906 232.037 C 233.761 232.852,233.414 234.269,233.135 235.185 C 232.855 236.102,232.265 238.426,231.821 240.349 C 231.378 242.273,230.537 245.262,229.952 246.993 C 229.367 248.723,228.901 250.316,228.917 250.532 C 228.975 251.352,231.188 244.420,232.457 239.444 C 234.380 231.907,234.487 231.419,234.320 230.967 C 234.237 230.741,234.050 231.222,233.906 232.037 M145.000 233.333 C 144.859 233.974,144.822 234.575,144.916 234.669 C 145.010 234.763,145.194 234.308,145.324 233.657 C 145.633 232.114,145.334 231.814,145.000 233.333 M179.907 233.372 C 179.551 233.995,179.259 234.806,179.259 235.175 C 179.259 235.543,178.930 236.572,178.527 237.460 C 178.124 238.348,177.802 239.324,177.812 239.630 C 177.822 239.935,178.073 239.523,178.369 238.713 C 178.665 237.903,179.070 237.078,179.269 236.879 C 179.467 236.681,179.630 236.023,179.630 235.418 C 179.630 234.813,179.897 234.022,180.223 233.662 C 180.550 233.301,180.758 232.833,180.686 232.622 C 180.614 232.412,180.264 232.749,179.907 233.372 M284.882 237.448 C 284.845 238.184,284.734 239.600,284.635 240.596 L 284.456 242.407 284.835 240.926 C 285.044 240.111,285.155 238.694,285.082 237.778 C 284.964 236.308,284.940 236.269,284.882 237.448 M143.939 238.384 C 143.808 239.339,143.773 240.192,143.860 240.280 C 143.947 240.367,144.134 239.665,144.276 238.721 C 144.418 237.776,144.454 236.923,144.356 236.825 C 144.258 236.727,144.070 237.428,143.939 238.384 M177.116 243.012 C 176.884 244.260,176.438 245.565,176.125 245.911 C 175.791 246.280,175.556 247.227,175.556 248.199 C 175.556 249.112,175.311 250.182,175.012 250.577 C 174.713 250.973,174.491 251.963,174.518 252.778 L 174.569 254.259 174.718 252.803 C 174.800 252.002,175.106 251.006,175.397 250.591 C 175.688 250.175,175.926 249.184,175.926 248.387 C 175.926 247.591,176.242 246.420,176.628 245.784 C 177.247 244.765,178.097 240.741,177.693 240.741 C 177.608 240.741,177.348 241.763,177.116 243.012 M142.826 242.358 C 142.494 243.058,142.222 244.377,142.222 245.289 C 142.222 246.200,141.972 247.545,141.667 248.276 C 141.361 249.008,141.117 249.903,141.123 250.266 C 141.149 251.652,142.569 246.772,142.581 245.259 C 142.587 244.384,142.855 243.160,143.175 242.540 C 143.496 241.920,143.685 241.339,143.594 241.249 C 143.504 241.158,143.158 241.657,142.826 242.358 M283.768 248.009 C 283.733 248.646,283.616 249.729,283.509 250.417 C 283.330 251.561,283.347 251.590,283.711 250.754 C 283.930 250.252,284.047 249.169,283.971 248.347 C 283.859 247.131,283.821 247.068,283.768 248.009 M228.333 251.852 C 228.194 252.290,228.164 252.732,228.266 252.834 C 228.368 252.935,228.565 252.660,228.704 252.222 C 228.843 251.784,228.873 251.342,228.771 251.240 C 228.669 251.139,228.472 251.414,228.333 251.852 M140.541 254.245 C 140.398 255.392,140.361 256.410,140.459 256.508 C 140.556 256.606,140.748 255.741,140.883 254.587 C 141.019 253.432,141.056 252.414,140.966 252.324 C 140.876 252.234,140.685 253.098,140.541 254.245 M283.006 253.098 C 282.940 254.734,281.846 261.924,281.506 262.963 C 281.339 263.472,281.078 264.222,280.926 264.630 C 280.699 265.238,280.765 265.215,281.295 264.504 C 281.650 264.027,282.068 262.694,282.225 261.541 C 282.381 260.388,282.709 258.082,282.954 256.417 C 283.198 254.752,283.320 253.085,283.224 252.713 C 283.112 252.281,283.033 252.419,283.006 253.098 M225.819 259.336 C 223.300 266.747,223.168 267.180,223.932 265.556 C 224.807 263.692,228.208 253.640,228.024 253.457 C 227.940 253.372,226.947 256.018,225.819 259.336 M173.796 255.648 C 173.398 256.736,173.408 256.783,173.900 256.133 C 174.371 255.511,174.649 254.444,174.340 254.444 C 174.283 254.444,174.038 254.986,173.796 255.648 M172.892 260.741 C 172.762 261.454,172.556 262.370,172.433 262.778 C 172.311 263.185,172.473 262.956,172.792 262.269 C 173.112 261.582,173.318 260.665,173.251 260.232 C 173.164 259.671,173.060 259.818,172.892 260.741 M139.430 262.023 C 139.287 263.170,139.250 264.188,139.348 264.286 C 139.445 264.384,139.636 263.519,139.772 262.365 C 139.908 261.210,139.945 260.192,139.855 260.102 C 139.765 260.011,139.573 260.876,139.430 262.023 M171.353 268.979 C 171.014 271.883,170.763 275.009,170.795 275.926 C 170.838 277.184,170.919 276.911,171.125 274.815 C 171.275 273.287,171.597 270.231,171.841 268.024 C 172.084 265.818,172.213 263.941,172.127 263.855 C 172.040 263.769,171.692 266.074,171.353 268.979 M280.185 267.407 C 280.043 268.250,280.010 269.022,280.112 269.124 C 280.213 269.226,280.413 268.620,280.556 267.778 C 280.698 266.936,280.731 266.163,280.629 266.061 C 280.527 265.959,280.327 266.565,280.185 267.407 M220.418 273.010 C 218.963 276.309,217.832 279.067,217.904 279.139 C 217.977 279.211,219.232 276.577,220.693 273.286 C 222.155 269.995,223.286 267.237,223.207 267.157 C 223.127 267.078,221.872 269.712,220.418 273.010 M138.590 270.409 C 138.551 271.550,138.442 273.550,138.347 274.853 L 138.176 277.222 138.539 275.000 C 138.739 273.778,138.848 271.778,138.782 270.556 L 138.661 268.333 138.590 270.409 M278.951 274.699 C 278.679 275.476,278.338 276.944,278.192 277.963 C 278.046 278.981,277.745 280.148,277.525 280.556 C 277.304 280.963,277.008 281.989,276.868 282.836 C 276.728 283.683,276.380 284.683,276.096 285.058 C 275.812 285.434,275.596 286.241,275.616 286.852 L 275.653 287.963 275.900 286.852 C 276.035 286.241,276.430 285.121,276.777 284.364 C 277.124 283.606,277.413 282.606,277.421 282.142 C 277.428 281.677,277.672 280.880,277.963 280.370 C 278.254 279.861,278.498 278.811,278.505 278.037 C 278.513 277.263,278.779 276.127,279.096 275.512 C 279.414 274.898,279.623 274.145,279.559 273.841 C 279.496 273.536,279.222 273.922,278.951 274.699 M170.141 280.249 C 169.343 287.108,170.078 301.564,171.357 304.148 C 171.629 304.698,171.877 305.698,171.907 306.370 C 171.962 307.573,171.965 307.575,172.123 306.516 C 172.211 305.924,172.030 304.841,171.721 304.109 C 170.506 301.227,169.794 290.502,170.344 283.372 C 170.774 277.804,170.649 275.884,170.141 280.249 M214.795 284.854 C 213.356 287.728,212.236 290.137,212.307 290.208 C 212.378 290.279,213.637 287.928,215.105 284.983 C 216.573 282.039,217.693 279.630,217.593 279.630 C 217.494 279.630,216.235 281.981,214.795 284.854 M137.938 291.111 C 137.938 296.102,137.990 298.144,138.054 295.648 C 138.119 293.153,138.119 289.069,138.054 286.574 C 137.990 284.079,137.938 286.120,137.938 291.111 M211.237 291.852 C 210.876 292.463,210.453 292.963,210.295 292.963 C 210.138 292.963,209.764 293.551,209.464 294.269 C 207.122 299.875,194.772 314.112,190.546 316.077 C 189.737 316.453,188.824 316.976,188.519 317.238 C 188.213 317.500,187.380 317.895,186.667 318.115 L 185.370 318.516 186.667 318.327 C 187.380 318.223,188.415 317.807,188.966 317.402 C 189.518 316.998,190.106 316.667,190.273 316.667 C 192.510 316.667,204.637 303.327,208.623 296.481 C 209.453 295.056,210.415 293.556,210.760 293.148 C 211.487 292.292,212.331 290.741,212.071 290.741 C 211.974 290.741,211.598 291.241,211.237 291.852 M271.896 297.593 C 271.859 298.204,271.584 299.027,271.285 299.423 C 270.985 299.818,270.741 300.399,270.741 300.713 C 270.741 301.028,271.084 300.646,271.502 299.864 C 271.928 299.069,272.198 298.011,272.113 297.462 C 271.968 296.516,271.960 296.521,271.896 297.593 M270.116 302.130 C 269.990 302.486,269.816 302.944,269.730 303.148 C 269.645 303.352,269.837 303.195,270.158 302.800 C 270.740 302.082,270.916 301.481,270.544 301.481 C 270.436 301.481,270.243 301.773,270.116 302.130 M138.405 305.370 C 138.517 307.000,138.672 308.403,138.749 308.488 C 138.999 308.763,138.843 305.787,138.517 304.074 C 138.279 302.821,138.251 303.143,138.405 305.370 M268.191 306.823 C 268.167 307.214,267.925 307.797,267.652 308.119 C 267.379 308.441,266.775 309.666,266.309 310.842 C 265.844 312.018,264.971 313.659,264.371 314.488 C 263.770 315.317,263.353 316.069,263.444 316.160 C 263.714 316.430,265.839 312.905,266.718 310.728 C 267.167 309.615,267.771 308.424,268.059 308.083 C 268.348 307.742,268.505 307.158,268.409 306.787 C 268.247 306.162,268.231 306.164,268.191 306.823 M172.234 308.148 C 172.234 308.454,172.395 308.954,172.593 309.259 C 172.912 309.753,172.952 309.753,172.952 309.259 C 172.952 308.954,172.790 308.454,172.593 308.148 C 172.273 307.654,172.234 307.654,172.234 308.148 M139.323 311.852 C 139.312 312.361,139.440 313.444,139.608 314.259 C 139.805 315.210,139.922 315.409,139.936 314.815 C 139.948 314.306,139.819 313.222,139.651 312.407 C 139.454 311.457,139.337 311.258,139.323 311.852 M174.137 312.520 C 175.417 315.153,178.607 317.875,180.926 318.313 C 181.689 318.457,181.542 318.338,180.457 317.932 C 178.773 317.303,174.815 313.949,174.815 313.152 C 174.815 312.889,174.488 312.281,174.088 311.800 C 173.407 310.980,173.410 311.024,174.137 312.520 M140.212 317.407 C 140.349 317.917,140.614 318.583,140.803 318.889 C 141.042 319.275,141.071 319.162,140.899 318.519 C 140.763 318.009,140.497 317.343,140.308 317.037 C 140.069 316.651,140.040 316.764,140.212 317.407 M261.303 320.350 C 261.167 320.777,260.473 321.891,259.759 322.825 C 259.046 323.760,258.658 324.460,258.898 324.380 C 259.461 324.192,262.033 320.058,261.758 319.783 C 261.643 319.668,261.438 319.923,261.303 320.350 M141.145 321.529 C 141.126 322.064,141.361 322.709,141.667 322.963 C 141.972 323.217,142.223 323.945,142.225 324.582 C 142.226 325.219,142.558 326.241,142.963 326.852 C 143.368 327.463,143.695 327.796,143.689 327.593 C 143.684 327.389,143.435 326.899,143.136 326.503 C 142.837 326.108,142.593 325.243,142.593 324.581 C 142.593 323.919,142.429 323.276,142.228 323.152 C 142.028 323.028,141.709 322.393,141.521 321.741 C 141.197 320.622,141.176 320.610,141.145 321.529 M254.977 329.907 C 253.611 331.690,252.328 333.356,252.127 333.611 C 251.926 333.866,251.844 334.074,251.945 334.074 C 252.047 334.074,253.188 332.699,254.480 331.019 C 255.773 329.338,257.044 327.743,257.305 327.474 C 257.785 326.977,257.906 326.667,257.620 326.667 C 257.533 326.667,256.344 328.125,254.977 329.907 M143.733 329.281 C 143.717 329.599,143.963 330.182,144.280 330.577 C 144.846 331.285,144.850 331.284,144.515 330.556 C 144.328 330.148,144.081 329.565,143.968 329.259 C 143.790 328.779,143.758 328.782,143.733 329.281 M144.826 332.222 C 144.826 332.861,145.445 333.953,145.658 333.693 C 145.737 333.597,145.582 333.102,145.314 332.593 C 145.045 332.082,144.826 331.916,144.826 332.222 M145.941 334.382 C 145.933 334.653,146.518 336.054,147.241 337.496 C 148.594 340.191,150.000 342.259,150.000 341.553 C 150.000 341.334,149.831 341.050,149.624 340.923 C 149.201 340.661,148.015 338.499,146.783 335.741 C 146.328 334.722,145.949 334.111,145.941 334.382 M250.186 336.019 C 249.408 336.884,248.180 338.218,247.458 338.981 C 246.027 340.496,246.018 340.884,247.446 339.527 C 248.539 338.488,251.967 334.444,251.755 334.444 C 251.670 334.444,250.964 335.153,250.186 336.019 M244.594 342.275 C 243.623 343.368,240.305 346.057,236.712 348.664 C 235.057 349.865,233.704 350.910,233.704 350.988 C 233.704 351.226,235.657 349.936,237.407 348.541 C 238.324 347.810,239.741 346.762,240.557 346.212 C 241.988 345.246,245.927 341.481,245.506 341.481 C 245.393 341.481,244.982 341.839,244.594 342.275 M150.591 343.288 C 152.760 347.134,164.850 358.606,165.768 357.689 C 165.861 357.596,164.924 356.894,163.686 356.130 C 161.139 354.558,154.416 347.974,151.943 344.630 C 149.948 341.931,149.668 341.654,150.591 343.288 M225.556 355.556 C 224.435 356.147,223.649 356.640,223.809 356.649 C 224.202 356.673,227.778 354.848,227.778 354.623 C 227.778 354.376,227.829 354.354,225.556 355.556 M222.037 357.235 C 221.106 357.683,221.076 357.734,221.852 357.547 C 222.361 357.425,222.936 357.176,223.130 356.995 C 223.610 356.547,223.346 356.605,222.037 357.235 M166.296 357.954 C 166.296 358.296,171.597 360.812,173.307 361.282 C 174.238 361.538,175.333 361.870,175.741 362.020 C 176.340 362.240,176.375 362.214,175.926 361.883 C 175.620 361.659,174.454 361.205,173.333 360.875 C 172.213 360.544,170.171 359.711,168.796 359.021 C 167.421 358.332,166.296 357.852,166.296 357.954 M219.446 358.051 C 219.040 358.153,218.309 358.551,217.822 358.934 C 217.335 359.316,216.615 359.630,216.222 359.630 C 215.829 359.630,215.143 359.827,214.698 360.069 C 214.253 360.310,213.306 360.624,212.593 360.767 L 211.296 361.026 212.593 361.057 C 213.306 361.074,214.212 360.843,214.608 360.544 C 215.003 360.245,215.689 360.000,216.132 360.000 C 216.575 360.000,217.361 359.667,217.879 359.259 C 218.397 358.852,219.044 358.516,219.318 358.513 C 219.591 358.510,220.065 358.346,220.370 358.148 C 220.955 357.770,220.673 357.740,219.446 358.051 M209.630 361.667 C 209.093 361.974,208.937 362.197,209.259 362.197 C 209.565 362.198,210.138 361.954,210.534 361.655 C 211.449 360.963,210.847 360.971,209.630 361.667 M203.337 362.639 C 201.811 362.816,200.395 363.041,200.189 363.139 C 199.599 363.419,205.578 362.897,206.640 362.575 C 207.880 362.199,206.994 362.216,203.337 362.639 M178.889 362.963 C 179.398 363.126,180.231 363.259,180.741 363.259 L 181.667 363.259 180.741 362.963 C 180.231 362.800,179.398 362.666,178.889 362.666 L 177.963 362.666 178.889 362.963 M186.111 363.714 C 188.794 364.448,189.060 364.479,187.828 363.909 C 187.142 363.592,186.226 363.350,185.791 363.371 C 185.194 363.400,185.272 363.484,186.111 363.714 M195.926 363.889 C 194.197 364.555,194.944 364.568,197.037 363.908 C 197.954 363.619,198.370 363.384,197.963 363.386 C 197.556 363.388,196.639 363.614,195.926 363.889 M191.204 364.700 C 191.560 364.793,192.144 364.793,192.500 364.700 C 192.856 364.607,192.565 364.530,191.852 364.530 C 191.139 364.530,190.847 364.607,191.204 364.700 " stroke="none" fill="#fce7ca" fill-rule="evenodd"></path></g></svg>